<?xml version="1.0" encoding="utf-8"?>
<!-- Generator: Adobe Illustrator 15.0.0, SVG Export Plug-In . SVG Version: 6.00 Build 0)  -->
<!DOCTYPE svg PUBLIC "-//W3C//DTD SVG 1.1//EN" "http://www.w3.org/Graphics/SVG/1.1/DTD/svg11.dtd">
<svg version="1.1" id="Layer_1" xmlns="http://www.w3.org/2000/svg" xmlns:xlink="http://www.w3.org/1999/xlink" x="0px" y="0px"
	 width="743px" height="317px" viewBox="0 0 743 317" enable-background="new 0 0 743 317" xml:space="preserve">
<g id="Workspace1">
	<g>
		<g>
			<g>
				<polygon fill="#FFFFFF" points="117.03,315.5 99.03,315.5 96.03,249.5 120.03,249.5 				"/>
				<path fill="#CDD0E0" d="M118.464,317H97.597l-3.136-69h27.14L118.464,317z M100.464,314h15.133l2.864-63H97.6L100.464,314z"/>
			</g>
			<polygon fill="#CDD0E0" points="96.03,252.5 97.212,278.5 118.849,278.5 120.03,252.5 			"/>
		</g>
		<g>
			<g>
				<polygon fill="#FFFFFF" points="644.03,315.5 626.03,315.5 623.03,249.5 647.03,249.5 				"/>
				<path fill="#CDD0E0" d="M645.464,317h-20.867l-3.136-69H648.6L645.464,317z M627.464,314h15.133l2.864-63H624.6L627.464,314z"/>
			</g>
			<polygon fill="#CDD0E0" points="623.03,252.5 624.212,278.5 645.849,278.5 647.03,252.5 			"/>
		</g>
		<g>
			<rect x="1.5" y="236.5" fill="#FFFFFF" width="740" height="26"/>
			<path fill="#CDD0E0" d="M743,264H0v-29h743V264z M3,261h737v-23H3V261z"/>
		</g>
	</g>
	<g>
		<path fill="#271F3E" d="M532.5,205.5c0,11.046-8.955,20-20,20h-282c-11.046,0-20-8.954-20-20v-168c0-11.046,8.954-20,20-20h282
			c11.045,0,20,8.954,20,20V205.5z"/>
		<path fill="#CDD0E0" d="M512.5,227h-282c-11.855,0-21.5-9.645-21.5-21.5v-168c0-11.855,9.645-21.5,21.5-21.5h282
			c11.855,0,21.5,9.645,21.5,21.5v168C534,217.355,524.355,227,512.5,227z M230.5,19c-10.201,0-18.5,8.299-18.5,18.5v168
			c0,10.201,8.299,18.5,18.5,18.5h282c10.201,0,18.5-8.299,18.5-18.5v-168c0-10.201-8.299-18.5-18.5-18.5H230.5z"/>
	</g>
	<g>
		<linearGradient id="SVGID_1_" gradientUnits="userSpaceOnUse" x1="257.084" y1="233.084" x2="485.917" y2="4.251">
			<stop  offset="0" style="stop-color:#BC79B3"/>
			<stop  offset="1" style="stop-color:#7379BA"/>
		</linearGradient>
		<rect x="224.5" y="36.833" fill="url(#SVGID_1_)" width="294" height="163.667"/>
		<path fill="#CDD0E0" d="M520,202H223V35.333h297V202z M226,199h291V38.333H226V199z"/>
	</g>
	<g>
		<g>
			<polygon fill="#FFFFFF" points="574.25,230.5 555.25,235.5 187.25,235.5 168.25,230.5 168.25,218.5 574.25,218.5 			"/>
			<path fill="#CDD0E0" d="M555.444,237l-368.576-0.049l-20.119-5.295V217h409v14.656L555.444,237z M187.445,234h367.611
				l17.694-4.656V220h-403v9.344L187.445,234z"/>
		</g>
		<polygon fill="#CDD0E0" points="169.25,229.5 187.25,235.5 555.25,235.5 574.75,229.5 		"/>
	</g>
	<path fill="#CDD0E0" d="M404.688,220.667c0,1.519-0.615,2.75-1.373,2.75h-63.63c-0.759,0-1.374-1.231-1.374-2.75l0,0
		c0-1.519,0.615-2.75,1.374-2.75h63.63C404.073,217.917,404.688,219.148,404.688,220.667L404.688,220.667z"/>
	<g>
		<g>
			<rect x="331.585" y="80.5" fill="#FFFFFF" width="79" height="79"/>
			<path fill="#CDD0E0" d="M412.085,161h-82V79h82V161z M333.085,158h76V82h-76V158z"/>
		</g>
		<g>
			<path fill="#5E4B8B" d="M358.869,129.715l-2.483,8.952h-8.124l10.607-34.875h10.349l10.865,34.875h-8.537l-2.69-8.952H358.869z
				 M367.717,123.816l-2.173-7.399c-0.621-2.069-1.242-4.657-1.76-6.726h-0.104c-0.518,2.069-1.034,4.708-1.604,6.726l-2.07,7.399
				H367.717z"/>
			<path fill="#5E4B8B" d="M392.247,106.328c0,2.173-1.604,3.932-4.242,3.932c-2.484,0-4.088-1.759-4.088-3.932
				c0-2.225,1.655-3.933,4.191-3.933C390.644,102.395,392.195,104.103,392.247,106.328z M384.124,138.667v-25.302h7.864v25.302
				H384.124z"/>
		</g>
		<g>
			<rect x="402.585" y="75.5" fill="#5E4B8B" width="14" height="14"/>
			<path fill="#CDD0E0" d="M418.085,91h-17V74h17V91z M404.085,88h11V77h-11V88z"/>
		</g>
	</g>
	<g>
		<g>
			<g>
				<polygon fill="#FFFFFF" points="93.585,117.5 64.585,117.5 37.585,186.5 53.585,236.5 97.585,236.5 128.585,191.5 				"/>
				<path fill="#CDD0E0" d="M98.373,238H52.49l-16.496-51.551L63.561,116h30.974l35.775,75.64L98.373,238z M54.68,235h42.117
					l30.063-43.64L92.635,119H65.609l-26.433,67.551L54.68,235z"/>
			</g>
			<g>
				
					<rect x="45.308" y="195.5" transform="matrix(0.9876 0.1571 -0.1571 0.9876 31.791 -8.1719)" fill="#CDD0E0" width="44.553" height="3"/>
			</g>
			<g>
				
					<rect x="107.586" y="175.988" transform="matrix(0.225 0.9744 -0.9744 0.225 275.5112 45.6077)" fill="#CDD0E0" width="2.999" height="40.025"/>
			</g>
			<g>
				
					<rect x="75.146" y="217" transform="matrix(0.2169 0.9762 -0.9762 0.2169 286.5804 79.7443)" fill="#CDD0E0" width="36.878" height="3"/>
			</g>
			<g>
				
					<rect x="77.585" y="197.661" transform="matrix(0.8638 0.5038 -0.5038 0.8638 120.8582 -10.0863)" fill="#CDD0E0" width="3" height="41.677"/>
			</g>
			<g>
				
					<rect x="32.703" y="213.5" transform="matrix(0.4717 0.8818 -0.8818 0.4717 219.7444 63.2581)" fill="#CDD0E0" width="48.765" height="3"/>
			</g>
			<g>
				
					<rect x="41.079" y="157.5" transform="matrix(0.1547 0.988 -0.988 0.1547 227.3136 52.3124)" fill="#CDD0E0" width="84.012" height="3"/>
			</g>
			<g>
				
					<rect x="59.585" y="114.46" transform="matrix(0.9259 0.3777 -0.3777 0.9259 63.2515 -11.5537)" fill="#CDD0E0" width="2.999" height="82.079"/>
			</g>
			<g>
				
					<rect x="90.085" y="117.452" transform="matrix(0.9988 0.0482 -0.0482 0.9988 7.7676 -4.2282)" fill="#CDD0E0" width="3" height="83.096"/>
			</g>
			<g>
				
					<rect x="36.27" y="188.5" transform="matrix(0.7526 0.6585 -0.6585 0.7526 135.405 19.6265)" fill="#CDD0E0" width="10.63" height="3"/>
			</g>
			<polygon fill="#E9EBF3" points="40.658,191.307 54.68,235.125 66.082,235.125 44.391,194.574 			"/>
			<polygon fill="#DADDEA" points="48.333,195.331 68.642,233.301 87.185,201.512 			"/>
			<polygon fill="#E1E4EE" points="87.784,198.944 75.938,123.309 47.688,192.565 			"/>
			<polygon fill="#F2F4F9" points="91.886,119 78.213,119 88.669,185.756 			"/>
			<polygon fill="#E1E4EE" points="71.197,235.125 95.715,235.125 88.951,204.688 			"/>
			<polygon fill="#E9EBF3" points="98.303,232.814 125.159,193.83 91.372,201.627 			"/>
		</g>
		<g>
			<rect x="76.585" y="89.5" fill="#271F3E" width="6.482" height="27.768"/>
			<path fill="#CDD0E0" d="M84.567,118.768h-9.482V88h9.482V118.768z M78.085,115.768h3.482V91h-3.482V115.768z"/>
		</g>
		<g>
			<path fill="#FFFFFF" d="M139.067,99.5H20.942l6.125-93.625c0,0,16.625-4.375,52.5-4.375s53.375,4.375,53.375,4.375L139.067,99.5z
				"/>
			<path fill="#CDD0E0" d="M140.668,101H19.34l6.3-96.301l1.044-0.275C27.372,4.244,43.908,0,79.567,0
				c35.65,0,53.017,4.239,53.739,4.42l1.062,0.265L140.668,101z M22.543,98h114.922l-5.947-90.906C127.23,6.189,109.949,3,79.567,3
				c-30.293,0-46.92,3.171-51.076,4.083L22.543,98z"/>
		</g>
	</g>
	<g>
		<g>
			<path fill="#5E4B8B" d="M706.419,213.125h-110.5v22.75h110.5c6.281,0,11.375-5.093,11.375-11.375S712.7,213.125,706.419,213.125z
				"/>
			<path fill="#CDD0E0" d="M706.419,237.375h-112v-25.75h112c7.1,0,12.875,5.775,12.875,12.875S713.519,237.375,706.419,237.375z
				 M597.419,234.375h109c5.445,0,9.875-4.43,9.875-9.875s-4.43-9.875-9.875-9.875h-109V234.375z"/>
		</g>
		<g>
			<rect x="595.919" y="219.896" fill="#FFFFFF" width="107.791" height="9.207"/>
			<path fill="#CDD0E0" d="M705.21,230.604H594.419v-12.207H705.21V230.604z M597.419,227.604H702.21v-6.207H597.419V227.604z"/>
		</g>
	</g>
	<g>
		<g>
			<path fill="#F16B90" d="M706.419,190.125h-110.5v22.75h110.5c6.281,0,11.375-5.093,11.375-11.375S712.7,190.125,706.419,190.125z
				"/>
			<path fill="#CDD0E0" d="M706.419,214.375h-112v-25.75h112c7.1,0,12.875,5.775,12.875,12.875S713.519,214.375,706.419,214.375z
				 M597.419,211.375h109c5.445,0,9.875-4.43,9.875-9.875s-4.43-9.875-9.875-9.875h-109V211.375z"/>
		</g>
		<g>
			<rect x="595.919" y="196.896" fill="#FFFFFF" width="107.791" height="9.207"/>
			<path fill="#CDD0E0" d="M705.21,207.604H594.419v-12.207H705.21V207.604z M597.419,204.604H702.21v-6.207H597.419V204.604z"/>
		</g>
	</g>
	<g>
		<g>
			<path fill="#271F3E" d="M607.294,167.125h110.5v22.75h-110.5c-6.281,0-11.375-5.093-11.375-11.375
				S601.013,167.125,607.294,167.125z"/>
			<path fill="#CDD0E0" d="M719.294,191.375h-112c-7.1,0-12.875-5.775-12.875-12.875s5.775-12.875,12.875-12.875h112V191.375z
				 M607.294,168.625c-5.445,0-9.875,4.43-9.875,9.875s4.43,9.875,9.875,9.875h109v-19.75H607.294z"/>
		</g>
		<g>
			<rect x="610.003" y="173.896" fill="#FFFFFF" width="107.791" height="9.207"/>
			<path fill="#CDD0E0" d="M719.294,184.604H608.503v-12.207h110.791V184.604z M611.503,181.604h104.791v-6.207H611.503V181.604z"/>
		</g>
	</g>
	<g>
		<polygon fill="#5E4B8B" points="531.492,235.501 466.904,235.501 476.523,221.072 521.873,221.072 		"/>
		<g>
			<path fill="#CDD0E0" d="M534.295,237.001h-70.193l11.619-17.429h46.955L534.295,237.001z M469.707,234.001h58.982l-7.619-11.429
				h-43.744L469.707,234.001z"/>
		</g>
		<path fill="#FDFAF8" d="M545.101,180.589c0-3.939-0.494-7.763-1.41-11.418h-90.599c-0.918,3.655-1.412,7.479-1.412,11.418
			c0,17.313,9.427,32.415,23.42,40.484h46.581C535.675,213.004,545.101,197.901,545.101,180.589z"/>
		<path fill="#5E4B8B" d="M544.91,184.604c0.113-1.325,0.19-2.66,0.19-4.015c0-3.939-0.494-7.763-1.41-11.418h-90.599
			c-0.918,3.655-1.412,7.479-1.412,11.418c0,1.413,0.086,2.804,0.209,4.185C476.627,184.521,514.329,184.465,544.91,184.604z"/>
		<g>
			<path fill="#CDD0E0" d="M522.082,222.573h-47.383l-0.349-0.2c-14.909-8.598-24.171-24.608-24.171-41.784
				c0-3.969,0.49-7.934,1.457-11.783l0.285-1.135h92.939l0.284,1.136c0.966,3.853,1.455,7.816,1.455,11.782
				c0,17.177-9.262,33.187-24.171,41.784L522.082,222.573z M475.505,219.573h45.771c13.781-8.109,22.325-23.01,22.325-38.984
				c0-3.331-0.368-6.662-1.096-9.918h-88.228c-0.729,3.253-1.098,6.584-1.098,9.918C453.18,196.563,461.725,211.463,475.505,219.573
				z"/>
		</g>
		<g>
			<path fill="#CDD0E0" d="M537.423,222.158c-3.674-3.007-5.339-5.896-5.088-8.832c0.469-5.491,7.522-9.486,15.689-14.112
				c4.904-2.777,9.975-5.649,14.023-9.049c3.539-2.972,4.993-6.601,4.094-10.221c-0.857-3.452-3.732-6.182-7.323-6.952
				c-2.6-0.555-7.722-0.513-12.878,6.046l-2.359-1.854c4.502-5.726,10.283-8.327,15.866-7.125c4.704,1.009,8.475,4.605,9.606,9.162
				c1.173,4.722-0.678,9.548-5.076,13.24c-4.261,3.577-9.453,6.519-14.475,9.362c-7.119,4.033-13.845,7.842-14.179,11.757
				c-0.158,1.851,1.188,3.955,3.999,6.255L537.423,222.158z"/>
		</g>
		<g>
			<rect x="508.086" y="161.494" fill="#CDD0E0" width="3" height="29.5"/>
		</g>
		<rect x="500.586" y="180.494" fill="#DADDEA" width="18" height="27.5"/>
		<g>
			<path fill="#CDD0E0" d="M520.086,209.494h-21v-30.5h21V209.494z M502.086,206.494h15v-24.5h-15V206.494z"/>
		</g>
	</g>
	<g>
		<path fill="#E9EBF3" d="M622.636,110.099c-0.682,5.272,3.729,10.189,9.85,10.979l48.026,6.2
			c6.119,0.791,11.633-2.845,12.313-8.118c0.27-2.082-0.264-4.102-1.373-5.84l-66.004-8.52
			C623.933,106.198,622.903,108.017,622.636,110.099z"/>
		<g>
			<path fill="#CDD0E0" d="M682.264,128.313L682.264,128.313c-0.617,0-1.243-0.041-1.86-0.12l-48.027-6.2
				c-3.315-0.428-6.299-1.953-8.398-4.294c-2.156-2.404-3.132-5.375-2.746-8.365c0.305-2.358,1.439-4.505,3.282-6.208l0.515-0.476
				l67.395,8.701l0.378,0.591c1.349,2.113,1.901,4.478,1.598,6.838C693.696,124.214,688.479,128.313,682.264,128.313z
				 M626.07,105.808c-1.036,1.128-1.677,2.467-1.862,3.909c-0.273,2.111,0.438,4.234,2.002,5.978
				c1.621,1.807,3.947,2.986,6.551,3.322l48.026,6.2c0.49,0.063,0.987,0.096,1.477,0.096c4.712,0,8.65-2.974,9.16-6.918
				c0.186-1.442-0.095-2.9-0.811-4.254L626.07,105.808z"/>
		</g>
		<g>
			<path fill="#DADDEA" d="M689.136,108.302c-0.27,2.086-2.181,3.56-4.267,3.291l-51.835-6.691c-2.087-0.27-3.561-2.18-3.291-4.267
				l0,0c0.27-2.087,2.18-3.561,4.268-3.292l51.834,6.691C687.931,104.304,689.405,106.214,689.136,108.302L689.136,108.302z"/>
			<path fill="#CDD0E0" d="M685.361,112.625c-0.205,0-0.412-0.013-0.62-0.04l-51.835-6.691c-2.63-0.34-4.495-2.756-4.155-5.386
				c0.336-2.596,2.734-4.493,5.387-4.156l51.835,6.691c2.631,0.34,4.494,2.757,4.155,5.387
				C689.818,110.821,687.77,112.625,685.361,112.625z M633.519,98.311c-1.406,0-2.604,1.054-2.784,2.452
				c-0.198,1.536,0.892,2.948,2.428,3.146l51.835,6.691c1.542,0.198,2.951-0.91,3.146-2.427c0.199-1.537-0.89-2.949-2.427-3.148
				l-51.835-6.691C633.76,98.319,633.639,98.311,633.519,98.311z"/>
		</g>
		<path fill="#FFFFFF" d="M695.543,102.778c1.129-8.747-13.668-17.866-33.051-20.369c-19.384-2.502-36.012,2.561-37.141,11.308
			c-0.063,0.485-0.069,0.973-0.034,1.46l69.89,9.022C695.362,103.736,695.479,103.263,695.543,102.778z"/>
		<g>
			<path fill="#CDD0E0" d="M696.32,106.271l-72.331-9.338l-0.085-1.226c-0.043-0.622-0.028-1.195,0.043-1.754
				c1.024-7.929,12.63-13.256,28.879-13.256c3.246,0,6.591,0.219,9.941,0.652c9.581,1.237,18.393,4.097,24.813,8.053
				c6.774,4.175,10.16,9.146,9.533,13.996c-0.071,0.556-0.203,1.114-0.401,1.706L696.32,106.271z M626.929,94.289l67.217,8.677
				c0.427-3.547-2.536-7.556-8.139-11.009c-6.065-3.738-14.455-6.449-23.624-7.632c-3.224-0.417-6.438-0.627-9.557-0.627
				C638.649,83.698,627.776,88.148,626.929,94.289z"/>
		</g>
		<path fill="#E9EBF3" d="M622.713,156.455c0,5.316,5.003,9.627,11.175,9.627h48.424c6.172,0,11.175-4.311,11.175-9.627
			c0-2.099-0.788-4.034-2.112-5.616h-66.551C623.501,152.421,622.713,154.356,622.713,156.455z"/>
		<g>
			<path fill="#CDD0E0" d="M682.091,167.404h-48.425c-6.989,0-12.675-4.992-12.675-11.127c0-2.379,0.852-4.654,2.461-6.578
				l0.45-0.537h67.951l0.45,0.537c1.609,1.923,2.461,4.198,2.461,6.579C694.765,162.412,689.079,167.404,682.091,167.404z
				 M625.339,152.162c-0.884,1.251-1.348,2.661-1.348,4.115c0,4.482,4.34,8.127,9.675,8.127h48.425c5.334,0,9.674-3.646,9.674-8.127
				c0-1.455-0.464-2.866-1.348-4.115H625.339z"/>
		</g>
		<g>
			<path fill="#DADDEA" d="M687.82,146.584c0,2.104-1.706,3.81-3.811,3.81h-52.265c-2.104,0-3.81-1.706-3.81-3.81l0,0
				c0-2.105,1.706-3.811,3.81-3.811h52.265C686.114,142.773,687.82,144.479,687.82,146.584L687.82,146.584z"/>
			<path fill="#CDD0E0" d="M684.01,151.395h-52.265c-2.652,0-4.81-2.158-4.81-4.81c0-2.653,2.157-4.811,4.81-4.811h52.265
				c2.652,0,4.811,2.158,4.811,4.811C688.82,149.237,686.662,151.395,684.01,151.395z M631.745,143.773
				c-1.549,0-2.81,1.261-2.81,2.811c0,1.549,1.261,2.81,2.81,2.81h52.265c1.55,0,2.811-1.261,2.811-2.81
				c0-1.55-1.261-2.811-2.811-2.811H631.745z"/>
		</g>
		<path fill="#FFFFFF" d="M693.486,141.233c0-8.82-15.843-15.97-35.387-15.97s-35.388,7.15-35.388,15.97
			c0,0.489,0.057,0.973,0.152,1.452h70.471C693.43,142.206,693.486,141.722,693.486,141.233z"/>
		<g>
			<path fill="#CDD0E0" d="M694.343,144.006h-72.929l-0.241-1.205c-0.121-0.6-0.182-1.187-0.182-1.746
				c0-9.796,16.203-17.47,36.888-17.47c20.684,0,36.886,7.674,36.886,17.47c0,0.561-0.061,1.148-0.181,1.746L694.343,144.006z
				 M623.991,141.006h67.773c-0.064-7.822-15.556-14.421-33.886-14.421C639.548,126.585,624.056,133.184,623.991,141.006z"/>
		</g>
	</g>
</g>
</svg>
