<?xml version="1.0" encoding="utf-8"?>
<!-- Generator: Adobe Illustrator 15.0.0, SVG Export Plug-In . SVG Version: 6.00 Build 0)  -->
<!DOCTYPE svg PUBLIC "-//W3C//DTD SVG 1.1//EN" "http://www.w3.org/Graphics/SVG/1.1/DTD/svg11.dtd">
<svg version="1.1" id="Layer_1" xmlns="http://www.w3.org/2000/svg" xmlns:xlink="http://www.w3.org/1999/xlink" x="0px" y="0px"
	 width="743px" height="371.18px" viewBox="0 0 743 371.18" enable-background="new 0 0 743 371.18" xml:space="preserve">
<g id="Workspace5">
	<g>
		<g>
			<g>
				<path fill="#CDD0E0" d="M517.442,126.188c-26.543-43.977-17.584-92.933,21.305-116.407l1.551,2.568
					c-37.4,22.576-45.932,69.8-20.287,112.288L517.442,126.188z"/>
			</g>
			<path fill="#CDD0E0" d="M540.39,152.069c1.322,1.889,0.861,4.492-1.027,5.814l0,0c-1.889,1.321-4.492,0.861-5.813-1.027
				l-22.738-32.494c-1.32-1.889-0.861-4.491,1.027-5.813l0,0c1.889-1.322,4.492-0.863,5.814,1.027L540.39,152.069z"/>
			<path fill="#E9EBF3" d="M556.501,142.338c2.146,3.071,1.395,7.3-1.678,9.446l0,0c-3.072,2.145-7.301,1.393-9.445-1.68
				l-24.496-35.082c-2.145-3.072-1.393-7.301,1.68-9.446l0,0c3.07-2.146,7.301-1.394,9.445,1.679L556.501,142.338z"/>
			<path fill="#CDD0E0" d="M550.946,154.506c-2.709,0-5.25-1.324-6.799-3.543l-24.494-35.082c-2.615-3.745-1.695-8.919,2.049-11.534
				c1.398-0.977,3.035-1.493,4.736-1.493c2.709,0,5.25,1.324,6.797,3.543l24.496,35.083c2.615,3.743,1.695,8.918-2.049,11.534
				C554.284,153.99,552.646,154.506,550.946,154.506z M526.438,105.854c-1.084,0-2.127,0.329-3.02,0.952
				c-2.389,1.668-2.975,4.969-1.307,7.358l24.496,35.082c0.986,1.415,2.609,2.26,4.338,2.26c1.082,0,2.127-0.329,3.018-0.951
				c2.389-1.669,2.977-4.97,1.309-7.358l-24.496-35.083C529.788,106.698,528.167,105.854,526.438,105.854z"/>
			<path fill="#FFFFFF" d="M557.433,150.218c3.072-2.145,3.824-6.373,1.678-9.445l-24.494-35.083
				c-2.145-3.071-6.375-3.824-9.445-1.679c-0.096,0.066-0.182,0.141-0.271,0.211l32.242,46.179
				C557.237,150.339,557.337,150.284,557.433,150.218z"/>
			<path fill="#CDD0E0" d="M556.81,152.388l-0.898-1.129l-33.057-47.346l1.123-0.875c0.154-0.124,0.24-0.191,0.332-0.256
				c1.398-0.978,3.037-1.494,4.736-1.494c2.709,0,5.25,1.324,6.799,3.543l24.496,35.083c1.268,1.814,1.752,4.013,1.363,6.191
				c-0.387,2.179-1.6,4.076-3.414,5.343c-0.086,0.061-0.178,0.116-0.27,0.172L556.81,152.388z M527.05,104.682l30.4,43.54
				c0.672-0.731,1.123-1.64,1.301-2.642c0.248-1.389-0.063-2.791-0.871-3.949l-24.494-35.083c-0.988-1.415-2.609-2.26-4.34-2.26
				C528.354,104.288,527.681,104.423,527.05,104.682z"/>
			<path fill="#E9EBF3" d="M591.491,142.338c-2.145,3.071-1.393,7.3,1.68,9.446l0,0c3.07,2.145,7.301,1.393,9.445-1.68
				l24.494-35.082c2.145-3.072,1.395-7.301-1.678-9.446l0,0c-3.072-2.146-7.301-1.394-9.445,1.679L591.491,142.338z"/>
			<path fill="#CDD0E0" d="M597.048,154.506h-0.002c-1.699,0-3.336-0.516-4.734-1.492c-3.746-2.616-4.664-7.791-2.051-11.534
				l24.496-35.083c1.549-2.219,4.09-3.543,6.799-3.543c1.699,0,3.338,0.517,4.736,1.493c3.744,2.615,4.664,7.789,2.049,11.534
				l-24.496,35.082C602.298,153.182,599.755,154.506,597.048,154.506z M621.556,105.854c-1.729,0-3.352,0.845-4.338,2.26
				l-24.496,35.083c-1.668,2.389-1.082,5.689,1.307,7.358c0.893,0.622,1.936,0.951,3.018,0.951h0.002c1.729,0,3.35-0.845,4.338-2.26
				l24.494-35.082c1.668-2.39,1.082-5.69-1.307-7.358C623.681,106.183,622.638,105.854,621.556,105.854z"/>
			<path fill="#FDFAF8" d="M590.562,150.218c-3.072-2.145-3.824-6.373-1.68-9.445l24.496-35.083
				c2.145-3.071,6.373-3.824,9.445-1.679c0.094,0.066,0.182,0.141,0.271,0.211L590.853,150.4
				C590.755,150.339,590.655,150.284,590.562,150.218z"/>
			<path fill="#CDD0E0" d="M591.261,152.435l-1.289-0.814c-0.092-0.056-0.182-0.111-0.271-0.174
				c-1.813-1.265-3.025-3.162-3.412-5.341s0.098-4.377,1.365-6.191l24.494-35.083c1.549-2.219,4.09-3.543,6.799-3.543
				c1.701,0,3.338,0.517,4.736,1.493c0.092,0.065,0.178,0.133,0.264,0.201l1.123,0.875l-0.744,1.223L591.261,152.435z
				 M618.946,104.288c-1.729,0-3.352,0.845-4.338,2.26l-24.496,35.083c-0.809,1.158-1.117,2.561-0.871,3.949
				c0.18,1.002,0.631,1.91,1.303,2.643l30.4-43.541C620.313,104.423,619.638,104.288,618.946,104.288z"/>
			<g>
				<path fill="#CDD0E0" d="M630.155,126.188l-2.568-1.551C653.233,82.149,644.702,34.926,607.3,12.35l1.551-2.568
					C647.739,33.256,656.7,82.212,630.155,126.188z"/>
			</g>
			<path fill="#CDD0E0" d="M607.208,152.069c-1.32,1.889-0.861,4.492,1.027,5.814l0,0c1.889,1.321,4.492,0.861,5.814-1.027
				l22.736-32.494c1.322-1.889,0.861-4.491-1.027-5.813l0,0c-1.889-1.322-4.492-0.863-5.813,1.027L607.208,152.069z"/>
			<path fill="#FDFAF8" d="M573.87,15.64c37.645,0,68.162,30.518,68.162,68.162c0,6.422-0.908,12.629-2.568,18.52
				c3.945-8.888,6.156-18.719,6.156-29.071c0-39.626-32.125-71.75-71.75-71.75c-39.627,0-71.75,32.124-71.75,71.75
				c0,10.352,2.209,20.182,6.154,29.069c-1.66-5.891-2.568-12.098-2.568-18.518C505.706,46.157,536.224,15.64,573.87,15.64z"/>
			<path fill="#CDD0E0" d="M640.835,102.93l-2.814-1.016c1.666-5.913,2.512-12.007,2.512-18.112
				c0-36.758-29.904-66.662-66.662-66.662s-66.664,29.904-66.664,66.662c0,6.105,0.846,12.198,2.512,18.11l-2.814,1.016
				c-4.17-9.392-6.283-19.377-6.283-29.678C500.62,32.859,533.479,0,573.87,0s73.25,32.859,73.25,73.25
				C647.12,83.551,645.005,93.536,640.835,102.93z M573.87,14.14c37.969,0,68.939,30.534,69.65,68.336
				c0.398-3.039,0.6-6.118,0.6-9.226C644.12,34.514,612.606,3,573.87,3s-70.25,31.514-70.25,70.25c0,3.107,0.199,6.185,0.6,9.223
				C504.929,44.671,535.901,14.14,573.87,14.14z"/>
			<path fill="#E9EBF3" d="M514.663,41.171c1.258,0.664,1.74,2.222,1.076,3.48l-2.607,4.937c-0.664,1.259-2.223,1.74-3.48,1.075l0,0
				c-1.26-0.663-1.74-2.223-1.076-3.48l2.607-4.937C511.845,40.987,513.405,40.506,514.663,41.171L514.663,41.171z"/>
			<path fill="#E9EBF3" d="M633.151,41.171c-1.258,0.664-1.738,2.222-1.076,3.48l2.607,4.937c0.664,1.259,2.225,1.74,3.48,1.075l0,0
				c1.26-0.663,1.74-2.223,1.076-3.48l-2.605-4.937C635.97,40.987,634.409,40.506,633.151,41.171L633.151,41.171z"/>
		</g>
		<circle fill="#CDD0E0" cx="573.87" cy="17.68" r="9.625"/>
	</g>
	<g>
		<g>
			<g>
				
					<rect x="129.271" y="5.456" transform="matrix(0.9707 -0.2402 0.2402 0.9707 -1.1635 35.8638)" fill="#E9EBF3" width="34.496" height="34.497"/>
				<path fill="#CDD0E0" d="M169.225,36.4l-36.4,9.008l-9.009-36.4L160.216,0L169.225,36.4z M135.015,41.775l30.576-7.567
					l-7.567-30.575L127.448,11.2L135.015,41.775z"/>
			</g>
			<g>
				
					<rect x="131.915" y="27.133" transform="matrix(0.9707 -0.2402 0.2402 0.9707 -3.6512 36.8114)" fill="#FFFFFF" width="34.496" height="12.497"/>
				<path fill="#CDD0E0" d="M169.225,36.4l-36.4,9.008L129.1,30.364l36.4-9.008L169.225,36.4z M135.015,41.775l30.576-7.567
					l-2.281-9.22l-30.575,7.567L135.015,41.775z"/>
			</g>
		</g>
		<g>
			<g>
				<rect x="188.136" y="4.98" fill="#E9EBF3" width="34.498" height="34.498"/>
				<path fill="#CDD0E0" d="M224.134,40.979h-37.498V3.48h37.498V40.979z M189.636,37.979h31.498V6.48h-31.498V37.979z"/>
			</g>
			<g>
				<rect x="188.136" y="26.98" fill="#FFFFFF" width="34.498" height="12.498"/>
				<path fill="#CDD0E0" d="M224.134,40.979h-37.498V25.48h37.498V40.979z M189.636,37.979h31.498V28.48h-31.498V37.979z"/>
			</g>
		</g>
	</g>
	<g>
		<g>
			<g>
				<rect x="42.253" y="136.288" fill="#DADDEA" width="136.492" height="154.453"/>
				<path fill="#CDD0E0" d="M180.245,292.241H40.753V134.788h139.492V292.241z M43.753,289.241h133.492V137.788H43.753V289.241z"/>
			</g>
			<g>
				<rect x="60.392" y="151.734" fill="#FFFFFF" width="100.215" height="123.562"/>
				<path fill="#CDD0E0" d="M162.106,276.796H58.892V150.234h103.215V276.796z M61.892,273.796h97.215V153.234H61.892V273.796z"/>
			</g>
			<rect x="70.414" y="164.09" fill="#E9EBF3" width="80.171" height="98.851"/>
		</g>
		<path fill="#FFFFFF" d="M110.561,242.5l0.361-0.743l24.955-32.707l-0.153-0.227l0.107-0.144h-0.205l-10.032-14.797l-15.355-2.212
			l-14.835,2.212L85.372,208.68H85.29l0.043,0.057l-0.212,0.313l25.078,32.707L110.561,242.5z M99.837,195.968l7.236-0.887
			l-8.37,9.833L99.837,195.968z M110.435,195.761l10.997,12.919H99.438L110.435,195.761z M122.51,205.316l-8.687-10.203l7.506,0.883
			L122.51,205.316z M122.201,211.68l-11.641,23.957l-11.64-23.957H122.201z M117.751,227.701l7.785-16.021h4.28L117.751,227.701z
			 M132.001,208.68h-5.007h-1.034l-1.389-10.959L132.001,208.68z M96.628,197.424l-1.426,11.256h-1.074h-5.132L96.628,197.424z
			 M91.305,211.68h4.28l7.785,16.021L91.305,211.68z"/>
	</g>
	<g>
		<path fill="#FFFFFF" d="M704.592,249.498c0-3.939-0.494-7.763-1.41-11.418h-90.599c-0.918,3.655-1.412,7.479-1.412,11.418
			c0,17.313,9.427,32.415,23.42,40.484h46.581C695.166,281.913,704.592,266.811,704.592,249.498z"/>
		<g>
			<path fill="#DADDEA" d="M704.401,253.513c0.113-1.325,0.19-2.66,0.19-4.015c0-3.939-0.494-7.763-1.41-11.418h-90.599
				c-0.918,3.655-1.412,7.479-1.412,11.418c0,1.413,0.086,2.804,0.209,4.185C636.118,253.431,673.82,253.374,704.401,253.513z"/>
			<path fill="#CDD0E0" d="M610.009,255.196l-0.123-1.381c-0.146-1.646-0.215-3.017-0.215-4.317c0-3.969,0.49-7.933,1.457-11.783
				l0.285-1.135h92.939l0.284,1.136c0.966,3.853,1.455,7.816,1.455,11.782c0,1.263-0.063,2.579-0.196,4.143l-0.117,1.378
				l-1.384-0.006c-10.651-0.048-22.531-0.074-34.355-0.074c-22.388,0-43.215,0.087-58.644,0.244L610.009,255.196z M613.769,239.58
				c-0.729,3.254-1.098,6.584-1.098,9.918c0,0.833,0.03,1.702,0.095,2.671c15.287-0.148,35.547-0.23,57.273-0.23
				c11.313,0,22.679,0.023,32.971,0.068c0.056-0.9,0.082-1.718,0.082-2.509c0-3.331-0.368-6.662-1.096-9.918H613.769z"/>
		</g>
		<g>
			<path fill="#CDD0E0" d="M681.573,291.482H634.19l-0.349-0.2c-14.909-8.598-24.171-24.608-24.171-41.784
				c0-3.969,0.49-7.934,1.457-11.783l0.285-1.135h92.939l0.284,1.136c0.966,3.853,1.455,7.816,1.455,11.782
				c0,17.177-9.262,33.187-24.171,41.784L681.573,291.482z M634.996,288.482h45.771c13.781-8.109,22.325-23.01,22.325-38.984
				c0-3.331-0.368-6.662-1.096-9.918h-88.228c-0.729,3.253-1.098,6.584-1.098,9.918
				C612.671,265.473,621.216,280.372,634.996,288.482z"/>
		</g>
	</g>
	<g>
		<g>
			<g>
				<polygon fill="#FFFFFF" points="117.03,369.68 99.03,369.68 96.03,303.68 120.03,303.68 				"/>
				<path fill="#CDD0E0" d="M118.464,371.18H97.597l-3.136-69h27.14L118.464,371.18z M100.464,368.18h15.133l2.864-63H97.6
					L100.464,368.18z"/>
			</g>
			<polygon fill="#CDD0E0" points="96.03,306.68 97.212,332.68 118.849,332.68 120.03,306.68 			"/>
		</g>
		<g>
			<g>
				<polygon fill="#FFFFFF" points="644.03,369.68 626.03,369.68 623.03,303.68 647.03,303.68 				"/>
				<path fill="#CDD0E0" d="M645.464,371.18h-20.867l-3.136-69H648.6L645.464,371.18z M627.464,368.18h15.133l2.864-63H624.6
					L627.464,368.18z"/>
			</g>
			<polygon fill="#CDD0E0" points="623.03,306.68 624.212,332.68 645.849,332.68 647.03,306.68 			"/>
		</g>
		<g>
			<rect x="1.5" y="290.68" fill="#FFFFFF" width="740" height="26"/>
			<path fill="#CDD0E0" d="M743,318.18H0v-29h743V318.18z M3,315.18h737v-23H3V315.18z"/>
		</g>
	</g>
	<g>
		<path fill="#271F3E" d="M532.5,259.68c0,11.046-8.955,20-20,20h-282c-11.046,0-20-8.954-20-20v-168c0-11.046,8.954-20,20-20h282
			c11.045,0,20,8.954,20,20V259.68z"/>
		<path fill="#CDD0E0" d="M512.5,281.18h-282c-11.855,0-21.5-9.645-21.5-21.5v-168c0-11.855,9.645-21.5,21.5-21.5h282
			c11.855,0,21.5,9.645,21.5,21.5v168C534,271.535,524.355,281.18,512.5,281.18z M230.5,73.18c-10.201,0-18.5,8.299-18.5,18.5v168
			c0,10.201,8.299,18.5,18.5,18.5h282c10.201,0,18.5-8.299,18.5-18.5v-168c0-10.201-8.299-18.5-18.5-18.5H230.5z"/>
	</g>
	<g>
		<rect x="224.5" y="91.014" fill="#DADDEA" width="294" height="163.666"/>
		<path fill="#CDD0E0" d="M520,256.18H223V89.514h297V256.18z M226,253.18h291V92.514H226V253.18z"/>
	</g>
	<rect x="224.5" y="91.014" fill="#FFFFFF" width="294" height="82.833"/>
	<rect x="224.5" y="91.014" fill="#5E4B8B" width="102" height="163.666"/>
	<g>
		<g>
			<polygon fill="#FFFFFF" points="574.25,284.68 555.25,289.68 187.25,289.68 168.25,284.68 168.25,272.68 574.25,272.68 			"/>
			<path fill="#CDD0E0" d="M555.444,291.18l-368.576-0.05l-20.119-5.294V271.18h409v14.656L555.444,291.18z M187.445,288.18h367.611
				l17.694-4.656v-9.344h-403v9.344L187.445,288.18z"/>
		</g>
		<polygon fill="#CDD0E0" points="169.25,283.68 187.25,289.68 555.25,289.68 574.75,283.68 		"/>
	</g>
	<path fill="#CDD0E0" d="M404.688,274.847c0,1.519-0.615,2.75-1.373,2.75h-63.63c-0.759,0-1.374-1.231-1.374-2.75l0,0
		c0-1.519,0.615-2.75,1.374-2.75h63.63C404.073,272.097,404.688,273.328,404.688,274.847L404.688,274.847z"/>
	<g>
		<path fill="#CDD0E0" d="M520,256.18H223V89.514h297V256.18z M226,253.18h291V92.514H226V253.18z"/>
	</g>
	<rect x="240.585" y="109.68" fill="#CDD0E0" width="70" height="6"/>
	<rect x="240.585" y="119.68" fill="#CDD0E0" width="35" height="6"/>
	<rect x="340.085" y="184.68" fill="#FFFFFF" width="164.5" height="6"/>
	<rect x="340.085" y="194.68" fill="#FFFFFF" width="131.5" height="6"/>
	<rect x="340.085" y="204.68" fill="#FFFFFF" width="87.5" height="6"/>
	<rect x="340.085" y="214.68" fill="#FFFFFF" width="131.5" height="6"/>
	<g>
		<linearGradient id="SVGID_1_" gradientUnits="userSpaceOnUse" x1="344.4185" y1="132.6802" x2="384.085" y2="132.6802">
			<stop  offset="0" style="stop-color:#F89E71"/>
			<stop  offset="1" style="stop-color:#F16B90"/>
		</linearGradient>
		<path fill="url(#SVGID_1_)" d="M369.643,149.063c0.165,0.231-0.488-0.714-1.445-2.098c-1.258,0.348-2.578,0.549-3.945,0.549
			c-8.179,0-14.833-6.654-14.833-14.834c0-8.179,6.654-14.833,14.833-14.833c8.179,0,14.833,6.654,14.833,14.833
			c0,3.056-0.93,5.898-2.521,8.261c0.626,0.8,0.997,1.271,0.882,1.114c0.752,1.013,1.495,2.032,2.244,3.047
			c2.743-3.403,4.395-7.721,4.395-12.422c0-10.936-8.897-19.833-19.833-19.833c-10.936,0-19.833,8.897-19.833,19.833
			c0,10.937,8.897,19.834,19.833,19.834c2.446,0,4.78-0.467,6.946-1.28C370.681,150.509,370.159,149.788,369.643,149.063z"/>
	</g>
	<g>
		<linearGradient id="SVGID_2_" gradientUnits="userSpaceOnUse" x1="403.9189" y1="132.6919" x2="443.585" y2="132.6919">
			<stop  offset="0" style="stop-color:#BC79B3"/>
			<stop  offset="1" style="stop-color:#7379BA"/>
		</linearGradient>
		<path fill="url(#SVGID_2_)" d="M438.516,131.467c0.033,0.401,0.069,0.803,0.069,1.213c0,8.18-6.654,14.834-14.833,14.834
			s-14.833-6.654-14.833-14.834c0-8.039,6.432-14.589,14.418-14.813c-0.021-1.529-0.036-3.201-0.049-4.997
			c-10.721,0.25-19.369,9.03-19.369,19.81c0,10.937,8.896,19.834,19.833,19.834c10.936,0,19.833-8.897,19.833-19.834
			c0-0.378-0.018-0.751-0.039-1.123C441.872,131.453,440.194,131.43,438.516,131.467z"/>
	</g>
	<g>
		<linearGradient id="SVGID_3_" gradientUnits="userSpaceOnUse" x1="463.4189" y1="132.603" x2="503.085" y2="132.603">
			<stop  offset="0" style="stop-color:#69CEF4"/>
			<stop  offset="1" style="stop-color:#7379BA"/>
		</linearGradient>
		<path fill="url(#SVGID_3_)" d="M483.252,112.847c-10.937,0-19.833,8.897-19.833,19.833c0,10.137,7.647,18.508,17.474,19.68
			c0.017-1.816,0.035-3.503,0.056-5.043c-7.086-1.113-12.529-7.242-12.529-14.637c0-8.179,6.654-14.833,14.833-14.833
			s14.833,6.654,14.833,14.833c0,6.944-4.803,12.773-11.257,14.38c0.016,1.21,0.031,2.419,0.047,3.629
			c0.005,0.492,0.005,0.984,0.01,1.477c9.204-1.714,16.2-9.791,16.2-19.485C503.085,121.744,494.188,112.847,483.252,112.847z"/>
	</g>
	<g>
		<path fill="#FFFFFF" d="M640.792,172.659c0.086,0.013,0.175,0.021,0.264,0.021h3.147h0.726c-0.124,0-0.244,0.015-0.362,0.038
			c1.024,0.2,1.813,1.229,1.813,2.462s-0.788,2.262-1.813,2.461c0.118,0.024,0.238,0.039,0.362,0.039h-0.726h-0.291h-5.236h-0.291
			c-1.196,0-2.177,1.125-2.177,2.5s0.98,2.5,2.177,2.5h0.743h5.162c0.09,0,0.178,0.009,0.265,0.021
			c2.229,0.208,3.999,2.366,3.999,4.979c0,2.75-1.958,5-4.351,5h-1.449h-10.876h-0.161c-2.394,0-4.351,2.25-4.351,5
			c0,2.613,1.77,4.772,3.999,4.979c0.087,0.013,0.175,0.021,0.265,0.021h12.292h0.281c1.197,0,2.176,1.125,2.176,2.5
			c0,1.376-0.979,2.5-2.176,2.5h-0.24h-0.051h-4.784h-0.291c-1.196,0-2.176,1.125-2.176,2.5s0.979,2.5,2.176,2.5h5.295h4.905
			c1.196,0,2.175,1.125,2.175,2.5s-0.979,2.5-2.175,2.5h-1.917c-1.195,0-2.174,1.125-2.174,2.5c0,1.376,0.979,2.5,2.174,2.5h21.653
			c2.002,0,2.981-1.124,2.981-2.5c0-1.375-0.979-2.5-2.176-2.5h-5.69c-1.196,0-2.176-1.125-2.176-2.5s0.979-2.5,2.176-2.5h18.016
			c2.393,0,4.351-2.25,4.351-5c0-2.749-1.958-5-4.351-5h-13.758c0.124,0-0.355-0.02-0.443-0.038c-1.024-0.2-1.812-1.229-1.812-2.462
			s0.787-2.262,1.812-2.462c0.095-0.029,0.363-0.038,0.363-0.038h8.763c1.197,0,2.176-1.125,2.176-2.5s-0.979-2.5-2.176-2.5h-5.074
			c-1.197,0-2.176-1.124-2.176-2.5c0-1.375,0.979-2.5,2.176-2.5h7.25c2.393,0,4.351-2.25,4.351-5s-1.958-5-4.351-5h-9.426h-2.9
			c-1.195,0-2.175-1.124-2.175-2.5c0-1.375,0.979-2.5,2.175-2.5h0.292h2.608h1.449c2.394,0,4.351-2.25,4.351-5
			c0-2.614-1.77-4.771-4-4.98c-0.086-0.01-0.174-0.02-0.264-0.02h-14.071h-2.127h-13.774c-2.393,0-4.351,2.25-4.351,5
			C636.792,170.293,638.562,172.452,640.792,172.659z"/>
	</g>
</g>
</svg>
