<?xml version="1.0" encoding="utf-8"?>
<!-- Generator: Adobe Illustrator 15.0.0, SVG Export Plug-In . SVG Version: 6.00 Build 0)  -->
<!DOCTYPE svg PUBLIC "-//W3C//DTD SVG 1.1//EN" "http://www.w3.org/Graphics/SVG/1.1/DTD/svg11.dtd">
<svg version="1.1" id="Layer_1" xmlns="http://www.w3.org/2000/svg" xmlns:xlink="http://www.w3.org/1999/xlink" x="0px" y="0px"
	 width="694.251px" height="366.219px" viewBox="0 0 694.251 366.219" enable-background="new 0 0 694.251 366.219"
	 xml:space="preserve">
<g id="Workspace_4">
	<g>
		<path fill="#FFFFFF" d="M563.946,205.661c-27.415,0-49.719,22.303-49.719,49.719c0,27.414,22.304,49.719,49.719,49.719
			c27.413,0,49.719-22.305,49.719-49.719C613.665,227.964,591.359,205.661,563.946,205.661z"/>
		<path fill="#CDD0E0" d="M563.866,203.121c-28.927,0-52.461,23.534-52.461,52.462c0,28.927,23.534,52.461,52.461,52.461
			c28.928,0,52.463-23.534,52.463-52.461C616.329,226.655,592.793,203.121,563.866,203.121z M563.866,304.629
			c-27.044,0-49.046-22.002-49.046-49.046c0-27.045,22.002-49.047,49.046-49.047c27.045,0,49.048,22.002,49.048,49.047
			C612.914,282.627,590.911,304.629,563.866,304.629z"/>
		<path fill="#CDD0E0" d="M575.181,245.202c-15.448,0-28.017,12.568-28.017,28.019c0,15.448,12.568,28.019,28.017,28.019
			c15.45,0,28.021-12.57,28.021-28.019C603.202,257.771,590.631,245.202,575.181,245.202z"/>
		<path fill="#FFFFFF" d="M535.55,256.616c0,2.448-1.985,4.434-4.434,4.434h-8.526c-2.45,0-4.435-1.985-4.435-4.434l0,0
			c0-2.447,1.984-4.435,4.435-4.435h8.526C533.565,252.182,535.55,254.169,535.55,256.616L535.55,256.616z"/>
		<path fill="#CDD0E0" d="M531.117,250.476h-8.526c-3.387,0-6.143,2.755-6.143,6.141c0,3.387,2.756,6.142,6.143,6.142h8.526
			c3.386,0,6.141-2.755,6.141-6.142C537.257,253.23,534.502,250.476,531.117,250.476z M531.117,259.343h-8.526
			c-1.503,0-2.726-1.223-2.726-2.727s1.223-2.727,2.726-2.727h8.526c1.504,0,2.727,1.223,2.727,2.727
			S532.621,259.343,531.117,259.343z"/>
		<path fill="#FFFFFF" d="M563.575,223.129c-17.705,0-32.11,14.404-32.11,32.108c0,17.705,14.405,32.109,32.11,32.109
			c17.704,0,32.108-14.404,32.108-32.109C595.683,237.533,581.279,223.129,563.575,223.129z"/>
		
			<radialGradient id="SVGID_1_" cx="567.0259" cy="264.958" r="41.9613" gradientTransform="matrix(1 0 0 1.0093 0 -2.4561)" gradientUnits="userSpaceOnUse">
			<stop  offset="0" style="stop-color:#5E4B8B"/>
			<stop  offset="0.6909" style="stop-color:#5E4B8B"/>
			<stop  offset="0.7305" style="stop-color:#5C4988"/>
			<stop  offset="0.7786" style="stop-color:#55447E"/>
			<stop  offset="0.8311" style="stop-color:#4A3C6E"/>
			<stop  offset="0.8866" style="stop-color:#3B2F58"/>
			<stop  offset="0.9441" style="stop-color:#271F3F"/>
			<stop  offset="0.9455" style="stop-color:#271F3E"/>
		</radialGradient>
		<path fill="url(#SVGID_1_)" d="M563.521,227.59c-15.246,0-27.649,12.403-27.649,27.647s12.403,27.647,27.649,27.647
			c15.245,0,27.647-12.403,27.647-27.647S578.766,227.59,563.521,227.59z"/>
		<path fill="#CDD0E0" d="M563.521,221.075c-18.837,0-34.161,15.325-34.161,34.162c0,18.838,15.324,34.163,34.161,34.163
			c18.838,0,34.163-15.325,34.163-34.163C597.684,236.4,582.359,221.075,563.521,221.075z M563.521,285.984
			c-16.954,0-30.747-13.793-30.747-30.747c0-16.953,13.793-30.746,30.747-30.746c16.953,0,30.746,13.793,30.746,30.746
			C594.267,272.191,580.474,285.984,563.521,285.984z"/>
	</g>
	<g>
		<path fill="#271F3E" d="M365.409,363.671c-6.297,2.911-13.762,0.165-16.672-6.133l-20.025-43.328
			c-2.91-6.297-0.164-13.763,6.133-16.673l111.743-51.643c6.296-2.909,13.761-0.163,16.671,6.134l20.025,43.329
			c2.91,6.297,0.164,13.762-6.133,16.672L365.409,363.671z"/>
		<g>
			<path fill="#CDD0E0" d="M347.475,358.122l-20.025-43.33c-3.227-6.982-0.171-15.289,6.813-18.517l111.742-51.642
				c6.982-3.228,15.289-0.172,18.517,6.811l20.024,43.329c3.228,6.983,0.172,15.29-6.812,18.517l-111.742,51.643
				C359.009,368.16,350.703,365.104,347.475,358.122z M461.999,252.61c-2.585-5.593-9.236-8.038-14.828-5.454l-111.742,51.643
				c-5.594,2.585-8.039,9.235-5.455,14.828l20.024,43.329c2.585,5.592,9.235,8.039,14.828,5.454l111.743-51.643
				c5.592-2.584,8.038-9.236,5.454-14.828L461.999,252.61z"/>
		</g>
		<linearGradient id="SVGID_2_" gradientUnits="userSpaceOnUse" x1="334.4937" y1="304.6777" x2="477.9556" y2="304.6777">
			<stop  offset="0" style="stop-color:#BC79B3"/>
			<stop  offset="1" style="stop-color:#7379BA"/>
		</linearGradient>
		<path fill="url(#SVGID_2_)" d="M364.309,357.099c-4.117,1.902-9.092-0.103-11.113-4.477L335.346,314
			c-2.021-4.375-0.325-9.464,3.791-11.366l109.003-50.376c4.116-1.902,9.092,0.103,11.113,4.478l17.85,38.622
			c2.021,4.374,0.325,9.463-3.792,11.365L364.309,357.099z"/>
		<path fill="#271F3E" d="M474.101,290.936c-1.63,0.753-3.562,0.042-4.314-1.587l-10.697-23.147
			c-0.753-1.63-0.043-3.561,1.587-4.313l0,0c1.629-0.754,3.561-0.043,4.313,1.586l10.697,23.148
			C476.44,288.251,475.73,290.183,474.101,290.936L474.101,290.936z"/>
	</g>
	<g>
		<g>
			<path fill="#CDD0E0" d="M564.575,156.332c-26.544-43.977-17.585-92.933,21.305-116.407l1.551,2.568
				c-37.401,22.576-45.933,69.8-20.287,112.288L564.575,156.332z"/>
		</g>
		<path fill="#CDD0E0" d="M587.521,182.213c1.322,1.889,0.862,4.492-1.027,5.814l0,0c-1.889,1.321-4.492,0.861-5.813-1.027
			l-22.737-32.494c-1.321-1.889-0.861-4.491,1.027-5.813l0,0c1.889-1.322,4.491-0.863,5.813,1.027L587.521,182.213z"/>
		<path fill="#5E4B8B" d="M603.633,172.481c2.146,3.071,1.394,7.3-1.679,9.446l0,0c-3.071,2.145-7.301,1.393-9.445-1.68
			l-24.495-35.082c-2.146-3.072-1.394-7.301,1.679-9.446l0,0c3.07-2.146,7.301-1.394,9.445,1.679L603.633,172.481z"/>
		<path fill="#CDD0E0" d="M598.078,184.649c-2.708,0-5.25-1.324-6.799-3.543l-24.494-35.082c-2.615-3.745-1.695-8.919,2.049-11.534
			c1.398-0.977,3.035-1.493,4.736-1.493c2.709,0,5.25,1.324,6.798,3.543l24.495,35.083c2.615,3.743,1.695,8.918-2.049,11.534
			C601.416,184.134,599.778,184.649,598.078,184.649z M573.57,135.997c-1.083,0-2.127,0.329-3.019,0.952
			c-2.389,1.668-2.976,4.969-1.308,7.358l24.496,35.082c0.987,1.415,2.609,2.26,4.338,2.26c1.083,0,2.127-0.329,3.018-0.951
			c2.389-1.669,2.977-4.97,1.309-7.358l-24.496-35.083C576.919,136.842,575.298,135.997,573.57,135.997z"/>
		<path fill="#FFFFFF" d="M604.564,180.361c3.072-2.145,3.824-6.373,1.678-9.445l-24.494-35.083
			c-2.145-3.071-6.375-3.824-9.445-1.679c-0.096,0.066-0.182,0.141-0.271,0.211l32.242,46.179
			C604.37,180.482,604.468,180.428,604.564,180.361z"/>
		<path fill="#CDD0E0" d="M603.941,182.531l-0.898-1.129l-33.057-47.346l1.123-0.875c0.154-0.124,0.24-0.191,0.332-0.256
			c1.399-0.978,3.037-1.494,4.737-1.494c2.708,0,5.25,1.324,6.799,3.543l24.495,35.083c1.268,1.814,1.752,4.013,1.364,6.191
			s-1.6,4.076-3.415,5.343c-0.086,0.061-0.177,0.116-0.27,0.172L603.941,182.531z M574.181,134.825l30.4,43.54
			c0.672-0.731,1.123-1.64,1.301-2.642c0.248-1.389-0.062-2.791-0.87-3.949l-24.495-35.083c-0.988-1.415-2.609-2.26-4.339-2.26
			C575.487,134.432,574.812,134.566,574.181,134.825z"/>
		<path fill="#5E4B8B" d="M638.623,172.481c-2.145,3.071-1.393,7.3,1.68,9.446l0,0c3.07,2.145,7.301,1.393,9.445-1.68l24.494-35.082
			c2.145-3.072,1.395-7.301-1.678-9.446l0,0c-3.072-2.146-7.301-1.394-9.445,1.679L638.623,172.481z"/>
		<path fill="#CDD0E0" d="M644.179,184.649h-0.002c-1.699,0-3.336-0.516-4.734-1.492c-3.746-2.616-4.664-7.791-2.051-11.534
			l24.496-35.083c1.549-2.219,4.09-3.543,6.799-3.543c1.699,0,3.338,0.517,4.736,1.493c3.744,2.615,4.664,7.789,2.049,11.534
			l-24.496,35.082C649.429,183.325,646.886,184.649,644.179,184.649z M668.687,135.997c-1.729,0-3.352,0.845-4.338,2.26
			l-24.496,35.083c-1.668,2.389-1.082,5.689,1.307,7.358c0.893,0.622,1.936,0.951,3.018,0.951h0.002c1.729,0,3.35-0.845,4.338-2.26
			l24.494-35.082c1.668-2.39,1.082-5.69-1.307-7.358C670.812,136.326,669.769,135.997,668.687,135.997z"/>
		<path fill="#FDFAF8" d="M637.693,180.361c-3.072-2.145-3.824-6.373-1.68-9.445l24.496-35.083c2.145-3.071,6.373-3.824,9.445-1.679
			c0.094,0.066,0.182,0.141,0.271,0.211l-32.242,46.179C637.886,180.482,637.787,180.428,637.693,180.361z"/>
		<path fill="#CDD0E0" d="M638.392,182.578l-1.289-0.814c-0.092-0.056-0.182-0.111-0.271-0.174
			c-1.813-1.265-3.025-3.162-3.412-5.341s0.098-4.377,1.365-6.191l24.494-35.083c1.549-2.219,4.09-3.543,6.799-3.543
			c1.701,0,3.338,0.517,4.736,1.493c0.092,0.065,0.178,0.133,0.264,0.201l1.123,0.875l-0.744,1.223L638.392,182.578z
			 M666.078,134.432c-1.729,0-3.352,0.845-4.338,2.26l-24.496,35.083c-0.809,1.158-1.117,2.561-0.871,3.949
			c0.18,1.002,0.631,1.91,1.303,2.643l30.4-43.541C667.445,134.566,666.769,134.432,666.078,134.432z"/>
		<g>
			<path fill="#CDD0E0" d="M677.287,156.332l-2.568-1.551c25.646-42.488,17.115-89.712-20.287-112.288l1.551-2.568
				C694.871,63.399,703.832,112.355,677.287,156.332z"/>
		</g>
		<path fill="#CDD0E0" d="M654.339,182.213c-1.32,1.889-0.861,4.492,1.027,5.814l0,0c1.889,1.321,4.492,0.861,5.814-1.027
			l22.736-32.494c1.322-1.889,0.861-4.491-1.027-5.813l0,0c-1.889-1.322-4.492-0.863-5.813,1.027L654.339,182.213z"/>
		<path fill="#FDFAF8" d="M621.001,45.783c37.645,0,68.162,30.518,68.162,68.162c0,6.422-0.908,12.629-2.568,18.52
			c3.945-8.888,6.156-18.719,6.156-29.071c0-39.626-32.125-71.75-71.75-71.75c-39.627,0-71.75,32.124-71.75,71.75
			c0,10.352,2.209,20.182,6.154,29.069c-1.66-5.891-2.567-12.098-2.567-18.518C552.838,76.301,583.356,45.783,621.001,45.783z"/>
		<path fill="#CDD0E0" d="M687.966,133.073l-2.814-1.016c1.666-5.913,2.512-12.007,2.512-18.112
			c0-36.758-29.904-66.662-66.662-66.662s-66.663,29.904-66.663,66.662c0,6.105,0.845,12.198,2.511,18.11l-2.814,1.016
			c-4.17-9.392-6.283-19.377-6.283-29.678c0-40.391,32.859-73.25,73.25-73.25s73.25,32.859,73.25,73.25
			C694.251,113.694,692.136,123.68,687.966,133.073z M621.001,44.283c37.969,0,68.939,30.534,69.65,68.336
			c0.398-3.039,0.6-6.118,0.6-9.226c0-38.736-31.514-70.25-70.25-70.25s-70.25,31.514-70.25,70.25c0,3.107,0.2,6.185,0.6,9.223
			C552.06,74.814,583.033,44.283,621.001,44.283z"/>
		<path fill="#5E4B8B" d="M561.794,71.314c1.258,0.664,1.74,2.222,1.076,3.48l-2.607,4.937c-0.664,1.259-2.223,1.74-3.48,1.075l0,0
			c-1.259-0.663-1.74-2.223-1.076-3.48l2.607-4.937C558.977,71.131,560.537,70.649,561.794,71.314L561.794,71.314z"/>
		<path fill="#5E4B8B" d="M680.283,71.314c-1.258,0.664-1.738,2.222-1.076,3.48l2.607,4.937c0.664,1.259,2.225,1.74,3.48,1.075l0,0
			c1.26-0.663,1.74-2.223,1.076-3.48l-2.605-4.937C683.101,71.131,681.541,70.649,680.283,71.314L680.283,71.314z"/>
	</g>
	<g>
		
			<rect x="209.242" y="172.036" transform="matrix(0.4364 -0.8997 0.8997 0.4364 -87.9063 345.3914)" fill="#FFFFFF" width="45.014" height="141.659"/>
		<g>
			<path fill="#CDD0E0" d="M307.38,252.851l-20.953,43.2l-130.158-63.128l20.955-43.2L307.38,252.851z M285.039,292.042
				l18.334-37.801l-124.76-60.511l-18.335,37.802L285.039,292.042z"/>
		</g>
		
			<rect x="173.404" y="205.397" transform="matrix(0.4364 -0.8998 0.8998 0.4364 -92.7126 296.3246)" fill="#F89E71" width="33.542" height="33.54"/>
		
			<rect x="209.142" y="222.73" transform="matrix(0.4364 -0.8998 0.8998 0.4364 -88.1666 338.249)" opacity="0.5" fill="#F89E71" width="33.542" height="33.541"/>
		
			<rect x="244.88" y="240.063" transform="matrix(0.4364 -0.8997 0.8997 0.4364 -83.6218 380.1695)" opacity="0.2" fill="#F89E71" width="33.541" height="33.541"/>
		
			<rect x="200.631" y="199.858" transform="matrix(0.1928 -0.9812 0.9812 0.1928 -85.4966 437.4432)" fill="#FFFFFF" width="45.014" height="141.66"/>
		<g>
			<path fill="#CDD0E0" d="M298.46,260.034l-9.26,47.112L147.257,279.25l9.26-47.111L298.46,260.034z M286.835,303.623l8.104-41.224
				L158.882,235.66l-8.104,41.225L286.835,303.623z"/>
		</g>
		
			<rect x="160.534" y="243.443" transform="matrix(0.1928 -0.9812 0.9812 0.1928 -112.215 384.0144)" fill="#F16B90" width="33.542" height="33.542"/>
		
			<rect x="199.508" y="251.103" transform="matrix(0.1928 -0.9812 0.9812 0.1928 -88.2721 428.4397)" opacity="0.5" fill="#F16B90" width="33.542" height="33.541"/>
		
			<rect x="238.483" y="258.763" transform="matrix(0.1929 -0.9812 0.9812 0.1929 -64.3356 472.8546)" opacity="0.2" fill="#F16B90" width="33.541" height="33.54"/>
		<rect x="148.462" y="279.552" fill="#FFFFFF" width="141.659" height="45.013"/>
		<g>
			<path fill="#CDD0E0" d="M291.974,278.582v48.014h-144.66v-48.014H291.974z M288.974,323.596v-42.014h-138.66v42.014H288.974z"/>
		</g>
		<rect x="156.356" y="285.352" fill="#BC79B3" width="33.541" height="33.541"/>
		<rect x="196.076" y="285.352" opacity="0.5" fill="#BC79B3" width="33.541" height="33.541"/>
		<rect x="235.795" y="285.352" opacity="0.2" fill="#BC79B3" width="33.541" height="33.541"/>
	</g>
	<g>
		<g>
			<path fill="#FFFFFF" d="M506.666,216.939c0,3.695-2.997,6.691-6.691,6.691H194.718c-3.695,0-6.691-2.996-6.691-6.691V13.648
				c0-3.695,2.996-6.691,6.691-6.691h305.256c3.694,0,6.691,2.996,6.691,6.691V216.939z"/>
		</g>
		<g>
			<path fill="#CDD0E0" d="M500.194,224.285H194.939c-4.48,0-8.125-3.646-8.125-8.125V12.869c0-4.479,3.645-8.125,8.125-8.125
				h305.255c4.479,0,8.126,3.646,8.126,8.125V216.16C508.32,220.64,504.673,224.285,500.194,224.285z M194.939,7.611
				c-2.899,0-5.257,2.358-5.257,5.258V216.16c0,2.899,2.358,5.257,5.257,5.257h305.255c2.899,0,5.258-2.357,5.258-5.257V12.869
				c0-2.899-2.358-5.258-5.258-5.258H194.939z"/>
		</g>
		<g>
			<g>
				<defs>
					<path id="SVGID_3_" d="M474.214,129.172c0,2.641-2.14,4.779-4.779,4.779H225.996c-2.64,0-4.779-2.139-4.779-4.779V33.581
						c0-2.64,2.14-4.779,4.779-4.779h243.439c2.64,0,4.779,2.14,4.779,4.779V129.172z"/>
				</defs>
				<use xlink:href="#SVGID_3_"  overflow="visible" fill="#CDD0E0"/>
				<clipPath id="SVGID_4_">
					<use xlink:href="#SVGID_3_"  overflow="visible"/>
				</clipPath>
				<path clip-path="url(#SVGID_4_)" fill="#CDD0E0" d="M221.216,28.802v105.149V28.802z"/>
				<rect x="221.216" y="28.802" clip-path="url(#SVGID_4_)" fill="#CDD0E0" width="6.17" height="105.149"/>
				<rect x="227.387" y="28.802" clip-path="url(#SVGID_4_)" fill="#CDD0E0" width="6.171" height="105.149"/>
				<rect x="233.558" y="28.802" clip-path="url(#SVGID_4_)" fill="#CDD0E0" width="6.17" height="105.149"/>
				<rect x="239.728" y="28.802" clip-path="url(#SVGID_4_)" fill="#CDD0E0" width="6.171" height="105.149"/>
				<rect x="245.899" y="28.802" clip-path="url(#SVGID_4_)" fill="#CDD0E0" width="6.17" height="105.149"/>
				<rect x="252.069" y="28.802" clip-path="url(#SVGID_4_)" fill="#CDD0E0" width="6.171" height="105.149"/>
				<rect x="258.241" y="28.802" clip-path="url(#SVGID_4_)" fill="#CDD0E0" width="6.17" height="105.149"/>
				<rect x="264.411" y="28.802" clip-path="url(#SVGID_4_)" fill="#CDD0E0" width="6.171" height="105.149"/>
				<rect x="270.582" y="28.802" clip-path="url(#SVGID_4_)" fill="#CDD0E0" width="6.17" height="105.149"/>
				<rect x="276.752" y="28.802" clip-path="url(#SVGID_4_)" fill="#CDD0E0" width="6.17" height="105.149"/>
				<rect x="282.923" y="28.802" clip-path="url(#SVGID_4_)" fill="#CDD0E0" width="6.171" height="105.149"/>
				<rect x="289.094" y="28.802" clip-path="url(#SVGID_4_)" fill="#CDD0E0" width="6.17" height="105.149"/>
				<rect x="295.264" y="28.802" clip-path="url(#SVGID_4_)" fill="#CDD0E0" width="6.171" height="105.149"/>
				<rect x="301.435" y="28.802" clip-path="url(#SVGID_4_)" fill="#CDD0E0" width="6.171" height="105.149"/>
				<rect x="307.606" y="28.802" clip-path="url(#SVGID_4_)" fill="#CDD0E0" width="6.171" height="105.149"/>
				<rect x="313.777" y="28.802" clip-path="url(#SVGID_4_)" fill="#CDD0E0" width="6.17" height="105.149"/>
				<rect x="319.947" y="28.802" clip-path="url(#SVGID_4_)" fill="#CDD0E0" width="6.17" height="105.149"/>
				<rect x="326.118" y="28.802" clip-path="url(#SVGID_4_)" fill="#CDD0E0" width="6.171" height="105.149"/>
				<rect x="332.289" y="28.802" clip-path="url(#SVGID_4_)" fill="#CDD0E0" width="6.17" height="105.149"/>
				<rect x="338.459" y="28.802" clip-path="url(#SVGID_4_)" fill="#CDD0E0" width="6.17" height="105.149"/>
				<rect x="344.629" y="28.802" clip-path="url(#SVGID_4_)" fill="#CDD0E0" width="6.172" height="105.149"/>
				<rect x="350.801" y="28.802" clip-path="url(#SVGID_4_)" fill="#CDD0E0" width="6.171" height="105.149"/>
				<rect x="356.972" y="28.802" clip-path="url(#SVGID_4_)" fill="#CDD0E0" width="6.17" height="105.149"/>
				<rect x="363.142" y="28.802" clip-path="url(#SVGID_4_)" fill="#CDD0E0" width="6.171" height="105.149"/>
				<rect x="369.313" y="28.802" clip-path="url(#SVGID_4_)" fill="#CDD0E0" width="6.17" height="105.149"/>
				<rect x="375.483" y="28.802" clip-path="url(#SVGID_4_)" fill="#CDD0E0" width="6.171" height="105.149"/>
				<rect x="381.654" y="28.802" clip-path="url(#SVGID_4_)" fill="#CDD0E0" width="6.17" height="105.149"/>
				<rect x="387.824" y="28.802" clip-path="url(#SVGID_4_)" fill="#CDD0E0" width="6.171" height="105.149"/>
				<rect x="393.995" y="28.802" clip-path="url(#SVGID_4_)" fill="#CDD0E0" width="6.171" height="105.149"/>
				<rect x="400.166" y="28.802" clip-path="url(#SVGID_4_)" fill="#CDD0E0" width="6.172" height="105.149"/>
				<rect x="406.337" y="28.802" clip-path="url(#SVGID_4_)" fill="#CDD0E0" width="6.171" height="105.149"/>
				<rect x="412.508" y="28.802" clip-path="url(#SVGID_4_)" fill="#CDD0E0" width="6.17" height="105.149"/>
				<rect x="418.678" y="28.802" clip-path="url(#SVGID_4_)" fill="#CDD0E0" width="6.171" height="105.149"/>
				<rect x="424.849" y="28.802" clip-path="url(#SVGID_4_)" fill="#CDD0E0" width="6.17" height="105.149"/>
				<rect x="431.019" y="28.802" clip-path="url(#SVGID_4_)" fill="#CDD0E0" width="6.171" height="105.149"/>
				<rect x="437.19" y="28.802" clip-path="url(#SVGID_4_)" fill="#CDD0E0" width="6.171" height="105.149"/>
				<rect x="443.361" y="28.802" clip-path="url(#SVGID_4_)" fill="#CDD0E0" width="6.17" height="105.149"/>
				<rect x="449.531" y="28.802" clip-path="url(#SVGID_4_)" fill="#CDD0E0" width="6.171" height="105.149"/>
				<rect x="455.702" y="28.802" clip-path="url(#SVGID_4_)" fill="#CDD0E0" width="6.172" height="105.149"/>
				<rect x="461.874" y="28.802" clip-path="url(#SVGID_4_)" fill="#CDD0E0" width="6.171" height="105.149"/>
				<rect x="468.044" y="28.802" clip-path="url(#SVGID_4_)" fill="#CDD0E0" width="6.17" height="105.149"/>
				<path clip-path="url(#SVGID_4_)" fill="#CDD0E0" d="M474.214,133.951V28.802V133.951z"/>
			</g>
		</g>
		<g>
			<path fill="#271F3E" d="M229.182,42.981c-0.791,0-1.434-0.644-1.434-1.434v-4.462c0-0.79,0.643-1.434,1.434-1.434h11.153
				c0.791,0,1.434,0.644,1.434,1.434v4.462c0,0.79-0.643,1.434-1.434,1.434H229.182z"/>
		</g>
		<g>
			<path fill="#FFFFFF" d="M240.334,36.131c0.527,0,0.956,0.428,0.956,0.955v4.462c0,0.526-0.429,0.956-0.956,0.956h-11.153
				c-0.527,0-0.956-0.43-0.956-0.956v-4.462c0-0.527,0.428-0.955,0.956-0.955H240.334 M240.334,35.175h-11.153
				c-1.056,0-1.912,0.855-1.912,1.911v4.462c0,1.056,0.856,1.911,1.912,1.911h11.153c1.056,0,1.912-0.855,1.912-1.911v-4.462
				C242.246,36.03,241.39,35.175,240.334,35.175L240.334,35.175z"/>
		</g>
		<g>
			<path fill="#271F3E" d="M246.535,42.981c-0.791,0-1.434-0.644-1.434-1.434v-4.462c0-0.79,0.643-1.434,1.434-1.434h11.154
				c0.791,0,1.434,0.644,1.434,1.434v4.462c0,0.79-0.643,1.434-1.434,1.434H246.535z"/>
		</g>
		<g>
			<path fill="#FFFFFF" d="M257.688,36.131c0.527,0,0.956,0.428,0.956,0.955v4.462c0,0.526-0.428,0.956-0.956,0.956h-11.154
				c-0.527,0-0.956-0.43-0.956-0.956v-4.462c0-0.527,0.429-0.955,0.956-0.955H257.688 M257.688,35.175h-11.154
				c-1.055,0-1.912,0.855-1.912,1.911v4.462c0,1.056,0.857,1.911,1.912,1.911h11.154c1.055,0,1.912-0.855,1.912-1.911v-4.462
				C259.6,36.03,258.743,35.175,257.688,35.175L257.688,35.175z"/>
		</g>
		<g>
			<path fill="#271F3E" d="M263.889,42.981c-0.791,0-1.434-0.644-1.434-1.434v-4.462c0-0.79,0.644-1.434,1.434-1.434h11.153
				c0.791,0,1.434,0.644,1.434,1.434v4.462c0,0.79-0.643,1.434-1.434,1.434H263.889z"/>
		</g>
		<g>
			<path fill="#FFFFFF" d="M275.042,36.131c0.527,0,0.956,0.428,0.956,0.955v4.462c0,0.526-0.428,0.956-0.956,0.956h-11.153
				c-0.527,0-0.956-0.43-0.956-0.956v-4.462c0-0.527,0.429-0.955,0.956-0.955H275.042 M275.042,35.175h-11.153
				c-1.056,0-1.912,0.855-1.912,1.911v4.462c0,1.056,0.856,1.911,1.912,1.911h11.153c1.056,0,1.912-0.855,1.912-1.911v-4.462
				C276.953,36.03,276.097,35.175,275.042,35.175L275.042,35.175z"/>
		</g>
		<g>
			<path fill="#271F3E" d="M281.243,42.981c-0.791,0-1.434-0.644-1.434-1.434v-4.462c0-0.79,0.643-1.434,1.434-1.434h11.152
				c0.791,0,1.434,0.644,1.434,1.434v4.462c0,0.79-0.643,1.434-1.434,1.434H281.243z"/>
		</g>
		<g>
			<path fill="#FFFFFF" d="M292.395,36.131c0.527,0,0.956,0.428,0.956,0.955v4.462c0,0.526-0.429,0.956-0.956,0.956h-11.152
				c-0.527,0-0.956-0.43-0.956-0.956v-4.462c0-0.527,0.429-0.955,0.956-0.955H292.395 M292.395,35.175h-11.152
				c-1.056,0-1.912,0.855-1.912,1.911v4.462c0,1.056,0.856,1.911,1.912,1.911h11.152c1.056,0,1.912-0.855,1.912-1.911v-4.462
				C294.307,36.03,293.451,35.175,292.395,35.175L292.395,35.175z"/>
		</g>
		<g>
			<path fill="#271F3E" d="M298.596,42.981c-0.791,0-1.434-0.644-1.434-1.434v-4.462c0-0.79,0.643-1.434,1.434-1.434h11.152
				c0.791,0,1.434,0.644,1.434,1.434v4.462c0,0.79-0.644,1.434-1.434,1.434H298.596z"/>
		</g>
		<g>
			<path fill="#FFFFFF" d="M309.748,36.131c0.527,0,0.956,0.428,0.956,0.955v4.462c0,0.526-0.429,0.956-0.956,0.956h-11.152
				c-0.528,0-0.956-0.43-0.956-0.956v-4.462c0-0.527,0.428-0.955,0.956-0.955H309.748 M309.748,35.175h-11.152
				c-1.056,0-1.912,0.855-1.912,1.911v4.462c0,1.056,0.856,1.911,1.912,1.911h11.152c1.056,0,1.912-0.855,1.912-1.911v-4.462
				C311.66,36.03,310.804,35.175,309.748,35.175L309.748,35.175z"/>
		</g>
		<g>
			<path fill="#271F3E" d="M315.949,42.981c-0.791,0-1.434-0.644-1.434-1.434v-4.462c0-0.79,0.643-1.434,1.434-1.434h11.153
				c0.791,0,1.434,0.644,1.434,1.434v4.462c0,0.79-0.643,1.434-1.434,1.434H315.949z"/>
		</g>
		<g>
			<path fill="#FFFFFF" d="M327.102,36.131c0.527,0,0.956,0.428,0.956,0.955v4.462c0,0.526-0.429,0.956-0.956,0.956h-11.153
				c-0.527,0-0.956-0.43-0.956-0.956v-4.462c0-0.527,0.428-0.955,0.956-0.955H327.102 M327.102,35.175h-11.153
				c-1.056,0-1.912,0.855-1.912,1.911v4.462c0,1.056,0.856,1.911,1.912,1.911h11.153c1.056,0,1.912-0.855,1.912-1.911v-4.462
				C329.014,36.03,328.158,35.175,327.102,35.175L327.102,35.175z"/>
		</g>
		<g>
			<path fill="#271F3E" d="M333.302,42.981c-0.791,0-1.434-0.644-1.434-1.434v-4.462c0-0.79,0.643-1.434,1.434-1.434h11.153
				c0.79,0,1.434,0.644,1.434,1.434v4.462c0,0.79-0.644,1.434-1.434,1.434H333.302z"/>
		</g>
		<g>
			<path fill="#FFFFFF" d="M344.456,36.131c0.526,0,0.956,0.428,0.956,0.955v4.462c0,0.526-0.43,0.956-0.956,0.956h-11.153
				c-0.527,0-0.956-0.43-0.956-0.956v-4.462c0-0.527,0.429-0.955,0.956-0.955H344.456 M344.456,35.175h-11.153
				c-1.056,0-1.912,0.855-1.912,1.911v4.462c0,1.056,0.856,1.911,1.912,1.911h11.153c1.055,0,1.912-0.855,1.912-1.911v-4.462
				C346.368,36.03,345.51,35.175,344.456,35.175L344.456,35.175z"/>
		</g>
		<g>
			<path fill="#271F3E" d="M350.656,42.981c-0.79,0-1.434-0.644-1.434-1.434v-4.462c0-0.79,0.644-1.434,1.434-1.434h11.153
				c0.79,0,1.435,0.644,1.435,1.434v4.462c0,0.79-0.645,1.434-1.435,1.434H350.656z"/>
		</g>
		<g>
			<path fill="#FFFFFF" d="M361.809,36.131c0.526,0,0.956,0.428,0.956,0.955v4.462c0,0.526-0.43,0.956-0.956,0.956h-11.153
				c-0.526,0-0.956-0.43-0.956-0.956v-4.462c0-0.527,0.43-0.955,0.956-0.955H361.809 M361.809,35.175h-11.153
				c-1.055,0-1.912,0.855-1.912,1.911v4.462c0,1.056,0.857,1.911,1.912,1.911h11.153c1.055,0,1.912-0.855,1.912-1.911v-4.462
				C363.721,36.03,362.864,35.175,361.809,35.175L361.809,35.175z"/>
		</g>
		<g>
			<path fill="#271F3E" d="M368.009,42.981c-0.791,0-1.434-0.644-1.434-1.434v-4.462c0-0.79,0.643-1.434,1.434-1.434h11.152
				c0.791,0,1.434,0.644,1.434,1.434v4.462c0,0.79-0.643,1.434-1.434,1.434H368.009z"/>
		</g>
		<g>
			<path fill="#FFFFFF" d="M379.162,36.131c0.528,0,0.955,0.428,0.955,0.955v4.462c0,0.526-0.427,0.956-0.955,0.956h-11.152
				c-0.528,0-0.955-0.43-0.955-0.956v-4.462c0-0.527,0.427-0.955,0.955-0.955H379.162 M379.162,35.175h-11.152
				c-1.057,0-1.911,0.855-1.911,1.911v4.462c0,1.056,0.854,1.911,1.911,1.911h11.152c1.057,0,1.911-0.855,1.911-1.911v-4.462
				C381.073,36.03,380.218,35.175,379.162,35.175L379.162,35.175z"/>
		</g>
		<g>
			<path fill="#271F3E" d="M385.364,42.981c-0.792,0-1.435-0.644-1.435-1.434v-4.462c0-0.79,0.643-1.434,1.435-1.434h11.151
				c0.792,0,1.434,0.644,1.434,1.434v4.462c0,0.79-0.642,1.434-1.434,1.434H385.364z"/>
		</g>
		<g>
			<path fill="#FFFFFF" d="M396.515,36.131c0.528,0,0.956,0.428,0.956,0.955v4.462c0,0.526-0.428,0.956-0.956,0.956h-11.151
				c-0.528,0-0.956-0.43-0.956-0.956v-4.462c0-0.527,0.428-0.955,0.956-0.955H396.515 M396.515,35.175h-11.151
				c-1.057,0-1.912,0.855-1.912,1.911v4.462c0,1.056,0.855,1.911,1.912,1.911h11.151c1.057,0,1.912-0.855,1.912-1.911v-4.462
				C398.427,36.03,397.572,35.175,396.515,35.175L396.515,35.175z"/>
		</g>
		<g>
			<path fill="#271F3E" d="M402.715,42.981c-0.79,0-1.434-0.644-1.434-1.434v-4.462c0-0.79,0.644-1.434,1.434-1.434h11.153
				c0.79,0,1.435,0.644,1.435,1.434v4.462c0,0.79-0.645,1.434-1.435,1.434H402.715z"/>
		</g>
		<g>
			<path fill="#FFFFFF" d="M413.869,36.131c0.527,0,0.956,0.428,0.956,0.955v4.462c0,0.526-0.429,0.956-0.956,0.956h-11.153
				c-0.526,0-0.956-0.43-0.956-0.956v-4.462c0-0.527,0.43-0.955,0.956-0.955H413.869 M413.869,35.175h-11.153
				c-1.055,0-1.911,0.855-1.911,1.911v4.462c0,1.056,0.856,1.911,1.911,1.911h11.153c1.056,0,1.912-0.855,1.912-1.911v-4.462
				C415.781,36.03,414.924,35.175,413.869,35.175L413.869,35.175z"/>
		</g>
		<g>
			<path fill="#271F3E" d="M420.07,42.981c-0.79,0-1.435-0.644-1.435-1.434v-4.462c0-0.79,0.645-1.434,1.435-1.434h11.153
				c0.79,0,1.434,0.644,1.434,1.434v4.462c0,0.79-0.644,1.434-1.434,1.434H420.07z"/>
		</g>
		<g>
			<path fill="#FFFFFF" d="M431.223,36.131c0.526,0,0.956,0.428,0.956,0.955v4.462c0,0.526-0.43,0.956-0.956,0.956H420.07
				c-0.527,0-0.956-0.43-0.956-0.956v-4.462c0-0.527,0.429-0.955,0.956-0.955H431.223 M431.223,35.175H420.07
				c-1.056,0-1.912,0.855-1.912,1.911v4.462c0,1.056,0.856,1.911,1.912,1.911h11.153c1.055,0,1.911-0.855,1.911-1.911v-4.462
				C433.134,36.03,432.278,35.175,431.223,35.175L431.223,35.175z"/>
		</g>
		<g>
			<path fill="#271F3E" d="M437.423,42.981c-0.79,0-1.434-0.644-1.434-1.434v-4.462c0-0.79,0.644-1.434,1.434-1.434h11.151
				c0.792,0,1.435,0.644,1.435,1.434v4.462c0,0.79-0.643,1.434-1.435,1.434H437.423z"/>
		</g>
		<g>
			<path fill="#FFFFFF" d="M448.575,36.131c0.528,0,0.956,0.428,0.956,0.955v4.462c0,0.526-0.428,0.956-0.956,0.956h-11.151
				c-0.526,0-0.956-0.43-0.956-0.956v-4.462c0-0.527,0.43-0.955,0.956-0.955H448.575 M448.575,35.175h-11.151
				c-1.057,0-1.912,0.855-1.912,1.911v4.462c0,1.056,0.855,1.911,1.912,1.911h11.151c1.057,0,1.912-0.855,1.912-1.911v-4.462
				C450.487,36.03,449.631,35.175,448.575,35.175L448.575,35.175z"/>
		</g>
		<g>
			<path fill="#271F3E" d="M454.777,42.981c-0.791,0-1.434-0.644-1.434-1.434v-4.462c0-0.79,0.643-1.434,1.434-1.434h11.152
				c0.791,0,1.434,0.644,1.434,1.434v4.462c0,0.79-0.643,1.434-1.434,1.434H454.777z"/>
		</g>
		<g>
			<path fill="#FFFFFF" d="M465.929,36.131c0.528,0,0.955,0.428,0.955,0.955v4.462c0,0.526-0.427,0.956-0.955,0.956h-11.152
				c-0.528,0-0.955-0.43-0.955-0.956v-4.462c0-0.527,0.427-0.955,0.955-0.955H465.929 M465.929,35.175h-11.152
				c-1.057,0-1.911,0.855-1.911,1.911v4.462c0,1.056,0.854,1.911,1.911,1.911h11.152c1.057,0,1.911-0.855,1.911-1.911v-4.462
				C467.84,36.03,466.986,35.175,465.929,35.175L465.929,35.175z"/>
		</g>
		<g>
			<path fill="#271F3E" d="M228.863,59.868c-0.791,0-1.434-0.643-1.434-1.434V47.282c0-0.791,0.643-1.435,1.434-1.435h11.152
				c0.791,0,1.434,0.644,1.434,1.435v11.152c0,0.791-0.644,1.434-1.434,1.434H228.863z"/>
		</g>
		<g>
			<path fill="#FFFFFF" d="M240.015,46.326c0.527,0,0.956,0.429,0.956,0.956v11.152c0,0.526-0.429,0.956-0.956,0.956h-11.152
				c-0.528,0-0.956-0.43-0.956-0.956V47.282c0-0.527,0.428-0.956,0.956-0.956H240.015 M240.015,45.37h-11.152
				c-1.056,0-1.912,0.856-1.912,1.912v11.152c0,1.056,0.856,1.912,1.912,1.912h11.152c1.056,0,1.912-0.856,1.912-1.912V47.282
				C241.927,46.227,241.071,45.37,240.015,45.37L240.015,45.37z"/>
		</g>
		<g>
			<path fill="#271F3E" d="M245.603,59.868c-0.791,0-1.434-0.643-1.434-1.434V47.282c0-0.791,0.643-1.435,1.434-1.435h11.153
				c0.791,0,1.434,0.644,1.434,1.435v11.152c0,0.791-0.643,1.434-1.434,1.434H245.603z"/>
		</g>
		<g>
			<path fill="#FFFFFF" d="M256.756,46.326c0.527,0,0.956,0.429,0.956,0.956v11.152c0,0.526-0.428,0.956-0.956,0.956h-11.153
				c-0.527,0-0.956-0.43-0.956-0.956V47.282c0-0.527,0.429-0.956,0.956-0.956H256.756 M256.756,45.37h-11.153
				c-1.056,0-1.912,0.856-1.912,1.912v11.152c0,1.056,0.856,1.912,1.912,1.912h11.153c1.056,0,1.912-0.856,1.912-1.912V47.282
				C258.667,46.227,257.812,45.37,256.756,45.37L256.756,45.37z"/>
		</g>
		<g>
			<path fill="#271F3E" d="M262.344,59.868c-0.791,0-1.434-0.643-1.434-1.434V47.282c0-0.791,0.644-1.435,1.434-1.435h11.152
				c0.791,0,1.434,0.644,1.434,1.435v11.152c0,0.791-0.643,1.434-1.434,1.434H262.344z"/>
		</g>
		<g>
			<path fill="#FFFFFF" d="M273.496,46.326c0.528,0,0.956,0.429,0.956,0.956v11.152c0,0.526-0.428,0.956-0.956,0.956h-11.152
				c-0.527,0-0.956-0.43-0.956-0.956V47.282c0-0.527,0.429-0.956,0.956-0.956H273.496 M273.496,45.37h-11.152
				c-1.056,0-1.912,0.856-1.912,1.912v11.152c0,1.056,0.856,1.912,1.912,1.912h11.152c1.056,0,1.912-0.856,1.912-1.912V47.282
				C275.408,46.227,274.552,45.37,273.496,45.37L273.496,45.37z"/>
		</g>
		<g>
			<path fill="#271F3E" d="M279.084,59.868c-0.791,0-1.434-0.643-1.434-1.434V47.282c0-0.791,0.643-1.435,1.434-1.435h11.153
				c0.791,0,1.434,0.644,1.434,1.435v11.152c0,0.791-0.644,1.434-1.434,1.434H279.084z"/>
		</g>
		<g>
			<path fill="#FFFFFF" d="M290.238,46.326c0.527,0,0.956,0.429,0.956,0.956v11.152c0,0.526-0.429,0.956-0.956,0.956h-11.153
				c-0.528,0-0.956-0.43-0.956-0.956V47.282c0-0.527,0.428-0.956,0.956-0.956H290.238 M290.238,45.37h-11.153
				c-1.055,0-1.912,0.856-1.912,1.912v11.152c0,1.056,0.857,1.912,1.912,1.912h11.153c1.055,0,1.912-0.856,1.912-1.912V47.282
				C292.149,46.227,291.292,45.37,290.238,45.37L290.238,45.37z"/>
		</g>
		<g>
			<path fill="#271F3E" d="M295.826,59.868c-0.791,0-1.434-0.643-1.434-1.434V47.282c0-0.791,0.643-1.435,1.434-1.435h11.153
				c0.791,0,1.434,0.644,1.434,1.435v11.152c0,0.791-0.643,1.434-1.434,1.434H295.826z"/>
		</g>
		<g>
			<path fill="#FFFFFF" d="M306.979,46.326c0.527,0,0.956,0.429,0.956,0.956v11.152c0,0.526-0.428,0.956-0.956,0.956h-11.153
				c-0.527,0-0.956-0.43-0.956-0.956V47.282c0-0.527,0.429-0.956,0.956-0.956H306.979 M306.979,45.37h-11.153
				c-1.056,0-1.912,0.856-1.912,1.912v11.152c0,1.056,0.856,1.912,1.912,1.912h11.153c1.056,0,1.912-0.856,1.912-1.912V47.282
				C308.89,46.227,308.034,45.37,306.979,45.37L306.979,45.37z"/>
		</g>
		<g>
			<path fill="#271F3E" d="M312.566,59.868c-0.791,0-1.434-0.643-1.434-1.434V47.282c0-0.791,0.644-1.435,1.434-1.435h11.152
				c0.791,0,1.434,0.644,1.434,1.435v11.152c0,0.791-0.643,1.434-1.434,1.434H312.566z"/>
		</g>
		<g>
			<path fill="#FFFFFF" d="M323.719,46.326c0.528,0,0.956,0.429,0.956,0.956v11.152c0,0.526-0.428,0.956-0.956,0.956h-11.152
				c-0.527,0-0.956-0.43-0.956-0.956V47.282c0-0.527,0.429-0.956,0.956-0.956H323.719 M323.719,45.37h-11.152
				c-1.056,0-1.912,0.856-1.912,1.912v11.152c0,1.056,0.856,1.912,1.912,1.912h11.152c1.056,0,1.912-0.856,1.912-1.912V47.282
				C325.631,46.227,324.775,45.37,323.719,45.37L323.719,45.37z"/>
		</g>
		<g>
			<path fill="#271F3E" d="M329.307,59.868c-0.791,0-1.434-0.643-1.434-1.434V47.282c0-0.791,0.643-1.435,1.434-1.435h11.152
				c0.791,0,1.434,0.644,1.434,1.435v11.152c0,0.791-0.644,1.434-1.434,1.434H329.307z"/>
		</g>
		<g>
			<path fill="#FFFFFF" d="M340.459,46.326c0.527,0,0.956,0.429,0.956,0.956v11.152c0,0.526-0.429,0.956-0.956,0.956h-11.152
				c-0.528,0-0.956-0.43-0.956-0.956V47.282c0-0.527,0.428-0.956,0.956-0.956H340.459 M340.459,45.37h-11.152
				c-1.056,0-1.912,0.856-1.912,1.912v11.152c0,1.056,0.856,1.912,1.912,1.912h11.152c1.056,0,1.912-0.856,1.912-1.912V47.282
				C342.372,46.227,341.515,45.37,340.459,45.37L340.459,45.37z"/>
		</g>
		<g>
			<path fill="#271F3E" d="M346.048,59.868c-0.792,0-1.435-0.643-1.435-1.434V47.282c0-0.791,0.643-1.435,1.435-1.435H357.2
				c0.792,0,1.434,0.644,1.434,1.435v11.152c0,0.791-0.642,1.434-1.434,1.434H346.048z"/>
		</g>
		<g>
			<path fill="#FFFFFF" d="M357.2,46.326c0.528,0,0.956,0.429,0.956,0.956v11.152c0,0.526-0.428,0.956-0.956,0.956h-11.151
				c-0.528,0-0.956-0.43-0.956-0.956V47.282c0-0.527,0.428-0.956,0.956-0.956H357.2 M357.2,45.37h-11.151
				c-1.057,0-1.912,0.856-1.912,1.912v11.152c0,1.056,0.855,1.912,1.912,1.912H357.2c1.057,0,1.912-0.856,1.912-1.912V47.282
				C359.112,46.227,358.256,45.37,357.2,45.37L357.2,45.37z"/>
		</g>
		<g>
			<path fill="#271F3E" d="M362.788,59.868c-0.79,0-1.434-0.643-1.434-1.434V47.282c0-0.791,0.644-1.435,1.434-1.435h11.153
				c0.79,0,1.434,0.644,1.434,1.435v11.152c0,0.791-0.644,1.434-1.434,1.434H362.788z"/>
		</g>
		<g>
			<path fill="#FFFFFF" d="M373.941,46.326c0.526,0,0.956,0.429,0.956,0.956v11.152c0,0.526-0.43,0.956-0.956,0.956h-11.153
				c-0.526,0-0.956-0.43-0.956-0.956V47.282c0-0.527,0.43-0.956,0.956-0.956H373.941 M373.941,45.37h-11.153
				c-1.055,0-1.912,0.856-1.912,1.912v11.152c0,1.056,0.857,1.912,1.912,1.912h11.153c1.055,0,1.912-0.856,1.912-1.912V47.282
				C375.853,46.227,374.996,45.37,373.941,45.37L373.941,45.37z"/>
		</g>
		<g>
			<path fill="#271F3E" d="M379.529,59.868c-0.791,0-1.434-0.643-1.434-1.434V47.282c0-0.791,0.643-1.435,1.434-1.435h11.152
				c0.791,0,1.434,0.644,1.434,1.435v11.152c0,0.791-0.643,1.434-1.434,1.434H379.529z"/>
		</g>
		<g>
			<path fill="#FFFFFF" d="M390.681,46.326c0.528,0,0.955,0.429,0.955,0.956v11.152c0,0.526-0.427,0.956-0.955,0.956h-11.152
				c-0.528,0-0.956-0.43-0.956-0.956V47.282c0-0.527,0.428-0.956,0.956-0.956H390.681 M390.681,45.37h-11.152
				c-1.057,0-1.911,0.856-1.911,1.912v11.152c0,1.056,0.854,1.912,1.911,1.912h11.152c1.057,0,1.911-0.856,1.911-1.912V47.282
				C392.592,46.227,391.738,45.37,390.681,45.37L390.681,45.37z"/>
		</g>
		<g>
			<path fill="#271F3E" d="M396.269,59.868c-0.79,0-1.435-0.643-1.435-1.434V47.282c0-0.791,0.645-1.435,1.435-1.435h11.153
				c0.792,0,1.434,0.644,1.434,1.435v11.152c0,0.791-0.642,1.434-1.434,1.434H396.269z"/>
		</g>
		<g>
			<path fill="#FFFFFF" d="M407.422,46.326c0.528,0,0.956,0.429,0.956,0.956v11.152c0,0.526-0.428,0.956-0.956,0.956h-11.153
				c-0.526,0-0.956-0.43-0.956-0.956V47.282c0-0.527,0.43-0.956,0.956-0.956H407.422 M407.422,45.37h-11.153
				c-1.055,0-1.912,0.856-1.912,1.912v11.152c0,1.056,0.857,1.912,1.912,1.912h11.153c1.055,0,1.912-0.856,1.912-1.912V47.282
				C409.334,46.227,408.477,45.37,407.422,45.37L407.422,45.37z"/>
		</g>
		<g>
			<path fill="#271F3E" d="M413.01,59.868c-0.79,0-1.434-0.643-1.434-1.434V47.282c0-0.791,0.644-1.435,1.434-1.435h11.153
				c0.79,0,1.434,0.644,1.434,1.435v11.152c0,0.791-0.644,1.434-1.434,1.434H413.01z"/>
		</g>
		<g>
			<path fill="#FFFFFF" d="M424.164,46.326c0.526,0,0.956,0.429,0.956,0.956v11.152c0,0.526-0.43,0.956-0.956,0.956H413.01
				c-0.526,0-0.956-0.43-0.956-0.956V47.282c0-0.527,0.43-0.956,0.956-0.956H424.164 M424.164,45.37H413.01
				c-1.055,0-1.912,0.856-1.912,1.912v11.152c0,1.056,0.857,1.912,1.912,1.912h11.153c1.055,0,1.912-0.856,1.912-1.912V47.282
				C426.076,46.227,425.218,45.37,424.164,45.37L424.164,45.37z"/>
		</g>
		<g>
			<path fill="#271F3E" d="M429.751,59.868c-0.791,0-1.434-0.643-1.434-1.434V47.282c0-0.791,0.643-1.435,1.434-1.435h11.152
				c0.791,0,1.434,0.644,1.434,1.435v11.152c0,0.791-0.643,1.434-1.434,1.434H429.751z"/>
		</g>
		<g>
			<path fill="#FFFFFF" d="M440.904,46.326c0.528,0,0.955,0.429,0.955,0.956v11.152c0,0.526-0.427,0.956-0.955,0.956h-11.152
				c-0.528,0-0.956-0.43-0.956-0.956V47.282c0-0.527,0.428-0.956,0.956-0.956H440.904 M440.904,45.37h-11.152
				c-1.057,0-1.911,0.856-1.911,1.912v11.152c0,1.056,0.854,1.912,1.911,1.912h11.152c1.057,0,1.911-0.856,1.911-1.912V47.282
				C442.815,46.227,441.96,45.37,440.904,45.37L440.904,45.37z"/>
		</g>
		<g>
			<path fill="#271F3E" d="M446.492,59.868c-0.79,0-1.435-0.643-1.435-1.434V47.282c0-0.791,0.645-1.435,1.435-1.435h19.757
				c0.789,0,1.434,0.644,1.434,1.435v11.152c0,0.791-0.645,1.434-1.434,1.434H446.492z"/>
		</g>
		<g>
			<path fill="#FFFFFF" d="M466.249,46.326c0.526,0,0.955,0.429,0.955,0.956v11.152c0,0.526-0.429,0.956-0.955,0.956h-19.757
				c-0.526,0-0.956-0.43-0.956-0.956V47.282c0-0.527,0.43-0.956,0.956-0.956H466.249 M466.249,45.37h-19.757
				c-1.055,0-1.912,0.856-1.912,1.912v11.152c0,1.056,0.857,1.912,1.912,1.912h19.757c1.055,0,1.911-0.856,1.911-1.912V47.282
				C468.16,46.227,467.303,45.37,466.249,45.37L466.249,45.37z"/>
		</g>
		<g>
			<path fill="#271F3E" d="M455.094,76.119c-0.789,0-1.434-0.644-1.434-1.434V63.532c0-0.79,0.645-1.434,1.434-1.434h11.154
				c0.789,0,1.434,0.644,1.434,1.434v11.153c0,0.79-0.645,1.434-1.434,1.434H455.094z"/>
		</g>
		<g>
			<path fill="#FFFFFF" d="M466.249,62.576c0.526,0,0.955,0.429,0.955,0.956v11.153c0,0.526-0.429,0.955-0.955,0.955h-11.154
				c-0.526,0-0.956-0.429-0.956-0.955V63.532c0-0.527,0.43-0.956,0.956-0.956H466.249 M466.249,61.621h-11.154
				c-1.055,0-1.911,0.855-1.911,1.911v11.153c0,1.056,0.856,1.911,1.911,1.911h11.154c1.055,0,1.911-0.855,1.911-1.911V63.532
				C468.16,62.477,467.303,61.621,466.249,61.621L466.249,61.621z"/>
		</g>
		<g>
			<path fill="#271F3E" d="M438.355,76.119c-0.792,0-1.434-0.644-1.434-1.434V63.532c0-0.79,0.642-1.434,1.434-1.434h11.151
				c0.792,0,1.435,0.644,1.435,1.434v11.153c0,0.79-0.643,1.434-1.435,1.434H438.355z"/>
		</g>
		<g>
			<path fill="#FFFFFF" d="M449.506,62.576c0.528,0,0.956,0.429,0.956,0.956v11.153c0,0.526-0.428,0.955-0.956,0.955h-11.151
				c-0.528,0-0.956-0.429-0.956-0.955V63.532c0-0.527,0.428-0.956,0.956-0.956H449.506 M449.506,61.621h-11.151
				c-1.057,0-1.912,0.855-1.912,1.911v11.153c0,1.056,0.855,1.911,1.912,1.911h11.151c1.057,0,1.912-0.855,1.912-1.911V63.532
				C451.418,62.477,450.563,61.621,449.506,61.621L449.506,61.621z"/>
		</g>
		<g>
			<path fill="#271F3E" d="M421.614,76.119c-0.79,0-1.435-0.644-1.435-1.434V63.532c0-0.79,0.645-1.434,1.435-1.434h11.153
				c0.79,0,1.434,0.644,1.434,1.434v11.153c0,0.79-0.644,1.434-1.434,1.434H421.614z"/>
		</g>
		<g>
			<path fill="#FFFFFF" d="M432.767,62.576c0.526,0,0.956,0.429,0.956,0.956v11.153c0,0.526-0.43,0.955-0.956,0.955h-11.153
				c-0.526,0-0.956-0.429-0.956-0.955V63.532c0-0.527,0.43-0.956,0.956-0.956H432.767 M432.767,61.621h-11.153
				c-1.056,0-1.912,0.855-1.912,1.911v11.153c0,1.056,0.856,1.911,1.912,1.911h11.153c1.055,0,1.912-0.855,1.912-1.911V63.532
				C434.679,62.477,433.822,61.621,432.767,61.621L432.767,61.621z"/>
		</g>
		<g>
			<path fill="#271F3E" d="M404.872,76.119c-0.789,0-1.434-0.644-1.434-1.434V63.532c0-0.79,0.645-1.434,1.434-1.434h11.154
				c0.791,0,1.434,0.644,1.434,1.434v11.153c0,0.79-0.643,1.434-1.434,1.434H404.872z"/>
		</g>
		<g>
			<path fill="#FFFFFF" d="M416.026,62.576c0.528,0,0.955,0.429,0.955,0.956v11.153c0,0.526-0.427,0.955-0.955,0.955h-11.154
				c-0.526,0-0.956-0.429-0.956-0.955V63.532c0-0.527,0.43-0.956,0.956-0.956H416.026 M416.026,61.621h-11.154
				c-1.055,0-1.911,0.855-1.911,1.911v11.153c0,1.056,0.856,1.911,1.911,1.911h11.154c1.055,0,1.911-0.855,1.911-1.911V63.532
				C417.937,62.477,417.081,61.621,416.026,61.621L416.026,61.621z"/>
		</g>
		<g>
			<path fill="#271F3E" d="M388.132,76.119c-0.792,0-1.434-0.644-1.434-1.434V63.532c0-0.79,0.642-1.434,1.434-1.434h11.151
				c0.792,0,1.435,0.644,1.435,1.434v11.153c0,0.79-0.643,1.434-1.435,1.434H388.132z"/>
		</g>
		<g>
			<path fill="#FFFFFF" d="M399.284,62.576c0.528,0,0.956,0.429,0.956,0.956v11.153c0,0.526-0.428,0.955-0.956,0.955h-11.151
				c-0.528,0-0.956-0.429-0.956-0.955V63.532c0-0.527,0.428-0.956,0.956-0.956H399.284 M399.284,61.621h-11.151
				c-1.057,0-1.912,0.855-1.912,1.911v11.153c0,1.056,0.855,1.911,1.912,1.911h11.151c1.057,0,1.912-0.855,1.912-1.911V63.532
				C401.196,62.477,400.34,61.621,399.284,61.621L399.284,61.621z"/>
		</g>
		<g>
			<path fill="#271F3E" d="M371.391,76.119c-0.79,0-1.435-0.644-1.435-1.434V63.532c0-0.79,0.645-1.434,1.435-1.434h11.153
				c0.79,0,1.434,0.644,1.434,1.434v11.153c0,0.79-0.644,1.434-1.434,1.434H371.391z"/>
		</g>
		<g>
			<path fill="#FFFFFF" d="M382.544,62.576c0.526,0,0.956,0.429,0.956,0.956v11.153c0,0.526-0.43,0.955-0.956,0.955h-11.153
				c-0.526,0-0.956-0.429-0.956-0.955V63.532c0-0.527,0.43-0.956,0.956-0.956H382.544 M382.544,61.621h-11.153
				c-1.056,0-1.912,0.855-1.912,1.911v11.153c0,1.056,0.856,1.911,1.912,1.911h11.153c1.055,0,1.912-0.855,1.912-1.911V63.532
				C384.457,62.477,383.599,61.621,382.544,61.621L382.544,61.621z"/>
		</g>
		<g>
			<path fill="#271F3E" d="M354.651,76.119c-0.791,0-1.434-0.644-1.434-1.434V63.532c0-0.79,0.643-1.434,1.434-1.434h11.152
				c0.791,0,1.434,0.644,1.434,1.434v11.153c0,0.79-0.643,1.434-1.434,1.434H354.651z"/>
		</g>
		<g>
			<path fill="#FFFFFF" d="M365.803,62.576c0.528,0,0.955,0.429,0.955,0.956v11.153c0,0.526-0.427,0.955-0.955,0.955h-11.152
				c-0.528,0-0.956-0.429-0.956-0.955V63.532c0-0.527,0.428-0.956,0.956-0.956H365.803 M365.803,61.621h-11.152
				c-1.057,0-1.911,0.855-1.911,1.911v11.153c0,1.056,0.854,1.911,1.911,1.911h11.152c1.057,0,1.911-0.855,1.911-1.911V63.532
				C367.714,62.477,366.86,61.621,365.803,61.621L365.803,61.621z"/>
		</g>
		<g>
			<path fill="#271F3E" d="M337.91,76.119c-0.791,0-1.434-0.644-1.434-1.434V63.532c0-0.79,0.644-1.434,1.434-1.434h11.153
				c0.79,0,1.434,0.644,1.434,1.434v11.153c0,0.79-0.644,1.434-1.434,1.434H337.91z"/>
		</g>
		<g>
			<path fill="#FFFFFF" d="M349.063,62.576c0.526,0,0.956,0.429,0.956,0.956v11.153c0,0.526-0.43,0.955-0.956,0.955H337.91
				c-0.527,0-0.956-0.429-0.956-0.955V63.532c0-0.527,0.429-0.956,0.956-0.956H349.063 M349.063,61.621H337.91
				c-1.056,0-1.912,0.855-1.912,1.911v11.153c0,1.056,0.856,1.911,1.912,1.911h11.153c1.055,0,1.912-0.855,1.912-1.911V63.532
				C350.975,62.477,350.118,61.621,349.063,61.621L349.063,61.621z"/>
		</g>
		<g>
			<path fill="#271F3E" d="M321.169,76.119c-0.791,0-1.434-0.644-1.434-1.434V63.532c0-0.79,0.643-1.434,1.434-1.434h11.153
				c0.791,0,1.434,0.644,1.434,1.434v11.153c0,0.79-0.643,1.434-1.434,1.434H321.169z"/>
		</g>
		<g>
			<path fill="#FFFFFF" d="M332.322,62.576c0.527,0,0.956,0.429,0.956,0.956v11.153c0,0.526-0.428,0.955-0.956,0.955h-11.153
				c-0.527,0-0.956-0.429-0.956-0.955V63.532c0-0.527,0.429-0.956,0.956-0.956H332.322 M332.322,61.621h-11.153
				c-1.056,0-1.912,0.855-1.912,1.911v11.153c0,1.056,0.856,1.911,1.912,1.911h11.153c1.056,0,1.912-0.855,1.912-1.911V63.532
				C334.234,62.477,333.378,61.621,332.322,61.621L332.322,61.621z"/>
		</g>
		<g>
			<path fill="#271F3E" d="M304.429,76.119c-0.791,0-1.434-0.644-1.434-1.434V63.532c0-0.79,0.643-1.434,1.434-1.434h11.152
				c0.791,0,1.434,0.644,1.434,1.434v11.153c0,0.79-0.644,1.434-1.434,1.434H304.429z"/>
		</g>
		<g>
			<path fill="#FFFFFF" d="M315.582,62.576c0.527,0,0.956,0.429,0.956,0.956v11.153c0,0.526-0.429,0.955-0.956,0.955h-11.152
				c-0.528,0-0.956-0.429-0.956-0.955V63.532c0-0.527,0.428-0.956,0.956-0.956H315.582 M315.582,61.621h-11.152
				c-1.056,0-1.912,0.855-1.912,1.911v11.153c0,1.056,0.856,1.911,1.912,1.911h11.152c1.056,0,1.912-0.855,1.912-1.911V63.532
				C317.494,62.477,316.637,61.621,315.582,61.621L315.582,61.621z"/>
		</g>
		<g>
			<path fill="#271F3E" d="M287.688,76.119c-0.791,0-1.434-0.644-1.434-1.434V63.532c0-0.79,0.644-1.434,1.434-1.434h11.153
				c0.791,0,1.434,0.644,1.434,1.434v11.153c0,0.79-0.643,1.434-1.434,1.434H287.688z"/>
		</g>
		<g>
			<path fill="#FFFFFF" d="M298.841,62.576c0.528,0,0.956,0.429,0.956,0.956v11.153c0,0.526-0.428,0.955-0.956,0.955h-11.153
				c-0.527,0-0.956-0.429-0.956-0.955V63.532c0-0.527,0.429-0.956,0.956-0.956H298.841 M298.841,61.621h-11.153
				c-1.055,0-1.912,0.855-1.912,1.911v11.153c0,1.056,0.857,1.911,1.912,1.911h11.153c1.055,0,1.912-0.855,1.912-1.911V63.532
				C300.753,62.477,299.896,61.621,298.841,61.621L298.841,61.621z"/>
		</g>
		<g>
			<path fill="#271F3E" d="M270.947,76.119c-0.791,0-1.434-0.644-1.434-1.434V63.532c0-0.79,0.643-1.434,1.434-1.434H282.1
				c0.791,0,1.434,0.644,1.434,1.434v11.153c0,0.79-0.643,1.434-1.434,1.434H270.947z"/>
		</g>
		<g>
			<path fill="#FFFFFF" d="M282.1,62.576c0.527,0,0.956,0.429,0.956,0.956v11.153c0,0.526-0.428,0.955-0.956,0.955h-11.153
				c-0.527,0-0.956-0.429-0.956-0.955V63.532c0-0.527,0.428-0.956,0.956-0.956H282.1 M282.1,61.621h-11.153
				c-1.056,0-1.912,0.855-1.912,1.911v11.153c0,1.056,0.856,1.911,1.912,1.911H282.1c1.056,0,1.912-0.855,1.912-1.911V63.532
				C284.011,62.477,283.155,61.621,282.1,61.621L282.1,61.621z"/>
		</g>
		<g>
			<path fill="#271F3E" d="M254.207,76.119c-0.791,0-1.434-0.644-1.434-1.434V63.532c0-0.79,0.643-1.434,1.434-1.434h11.152
				c0.791,0,1.434,0.644,1.434,1.434v11.153c0,0.79-0.644,1.434-1.434,1.434H254.207z"/>
		</g>
		<g>
			<path fill="#FFFFFF" d="M265.359,62.576c0.527,0,0.956,0.429,0.956,0.956v11.153c0,0.526-0.429,0.955-0.956,0.955h-11.152
				c-0.528,0-0.956-0.429-0.956-0.955V63.532c0-0.527,0.428-0.956,0.956-0.956H265.359 M265.359,61.621h-11.152
				c-1.056,0-1.912,0.855-1.912,1.911v11.153c0,1.056,0.856,1.911,1.912,1.911h11.152c1.056,0,1.912-0.855,1.912-1.911V63.532
				C267.271,62.477,266.415,61.621,265.359,61.621L265.359,61.621z"/>
		</g>
		<g>
			<path fill="#271F3E" d="M258.348,92.688c-0.791,0-1.434-0.643-1.434-1.434V80.102c0-0.791,0.643-1.434,1.434-1.434h11.153
				c0.791,0,1.434,0.643,1.434,1.434v11.152c0,0.791-0.643,1.434-1.434,1.434H258.348z"/>
		</g>
		<g>
			<path fill="#FFFFFF" d="M269.501,79.146c0.527,0,0.956,0.43,0.956,0.956v11.152c0,0.527-0.429,0.956-0.956,0.956h-11.153
				c-0.527,0-0.956-0.429-0.956-0.956V80.102c0-0.526,0.428-0.956,0.956-0.956H269.501 M269.501,78.189h-11.153
				c-1.056,0-1.912,0.856-1.912,1.912v11.152c0,1.056,0.856,1.912,1.912,1.912h11.153c1.056,0,1.912-0.856,1.912-1.912V80.102
				C271.413,79.046,270.557,78.189,269.501,78.189L269.501,78.189z"/>
		</g>
		<g>
			<path fill="#271F3E" d="M266.632,108.938c-0.791,0-1.434-0.644-1.434-1.435V96.352c0-0.79,0.643-1.434,1.434-1.434h11.152
				c0.791,0,1.434,0.644,1.434,1.434v11.152c0,0.791-0.643,1.435-1.434,1.435H266.632z"/>
		</g>
		<g>
			<path fill="#FFFFFF" d="M277.785,95.396c0.527,0,0.956,0.43,0.956,0.956v11.152c0,0.528-0.429,0.956-0.956,0.956h-11.152
				c-0.527,0-0.956-0.428-0.956-0.956V96.352c0-0.526,0.429-0.956,0.956-0.956H277.785 M277.785,94.439h-11.152
				c-1.056,0-1.912,0.856-1.912,1.912v11.152c0,1.057,0.856,1.912,1.912,1.912h11.152c1.056,0,1.912-0.855,1.912-1.912V96.352
				C279.697,95.296,278.841,94.439,277.785,94.439L277.785,94.439z"/>
		</g>
		<g>
			<path fill="#271F3E" d="M229.074,127.738c-0.813,0-1.475-0.771-1.475-1.719v-12.813c0-0.947,0.662-1.719,1.475-1.719h11.389
				c0.813,0,1.475,0.771,1.475,1.719v12.813c0,0.947-0.662,1.719-1.475,1.719H229.074z"/>
		</g>
		<g>
			<path fill="#FFFFFF" d="M240.462,111.966c0.55,0,0.997,0.556,0.997,1.24v12.813c0,0.685-0.447,1.24-0.997,1.24h-11.389
				c-0.55,0-0.997-0.556-0.997-1.24v-12.813c0-0.685,0.447-1.24,0.997-1.24H240.462 M240.462,111.01h-11.389
				c-1.079,0-1.953,0.984-1.953,2.196v12.813c0,1.213,0.875,2.196,1.953,2.196h11.389c1.078,0,1.953-0.983,1.953-2.196v-12.813
				C242.415,111.994,241.541,111.01,240.462,111.01L240.462,111.01z"/>
		</g>
		<g>
			<path fill="#271F3E" d="M245.324,127.738c-0.813,0-1.475-0.771-1.475-1.719v-12.813c0-0.947,0.662-1.719,1.475-1.719h11.389
				c0.813,0,1.475,0.771,1.475,1.719v12.813c0,0.947-0.662,1.719-1.475,1.719H245.324z"/>
		</g>
		<g>
			<path fill="#FFFFFF" d="M256.713,111.966c0.55,0,0.997,0.556,0.997,1.24v12.813c0,0.685-0.447,1.24-0.997,1.24h-11.389
				c-0.55,0-0.997-0.556-0.997-1.24v-12.813c0-0.685,0.447-1.24,0.997-1.24H256.713 M256.713,111.01h-11.389
				c-1.079,0-1.953,0.984-1.953,2.196v12.813c0,1.213,0.875,2.196,1.953,2.196h11.389c1.078,0,1.953-0.983,1.953-2.196v-12.813
				C258.666,111.994,257.791,111.01,256.713,111.01L256.713,111.01z"/>
		</g>
		<g>
			<path fill="#271F3E" d="M262.53,127.738c-0.813,0-1.475-0.771-1.475-1.719v-12.813c0-0.947,0.662-1.719,1.475-1.719h11.389
				c0.813,0,1.475,0.771,1.475,1.719v12.813c0,0.947-0.662,1.719-1.475,1.719H262.53z"/>
		</g>
		<g>
			<path fill="#FFFFFF" d="M273.919,111.966c0.55,0,0.997,0.556,0.997,1.24v12.813c0,0.685-0.447,1.24-0.997,1.24H262.53
				c-0.55,0-0.997-0.556-0.997-1.24v-12.813c0-0.685,0.447-1.24,0.997-1.24H273.919 M273.919,111.01H262.53
				c-1.078,0-1.953,0.984-1.953,2.196v12.813c0,1.213,0.875,2.196,1.953,2.196h11.389c1.078,0,1.953-0.983,1.953-2.196v-12.813
				C275.872,111.994,274.998,111.01,273.919,111.01L273.919,111.01z"/>
		</g>
		<g>
			<path fill="#271F3E" d="M283.414,108.938c-0.791,0-1.434-0.644-1.434-1.435V96.352c0-0.79,0.643-1.434,1.434-1.434h11.152
				c0.791,0,1.434,0.644,1.434,1.434v11.152c0,0.791-0.644,1.435-1.434,1.435H283.414z"/>
		</g>
		<g>
			<path fill="#FFFFFF" d="M294.566,95.396c0.527,0,0.956,0.43,0.956,0.956v11.152c0,0.528-0.429,0.956-0.956,0.956h-11.152
				c-0.528,0-0.956-0.428-0.956-0.956V96.352c0-0.526,0.428-0.956,0.956-0.956H294.566 M294.566,94.439h-11.152
				c-1.056,0-1.912,0.856-1.912,1.912v11.152c0,1.057,0.856,1.912,1.912,1.912h11.152c1.056,0,1.912-0.855,1.912-1.912V96.352
				C296.479,95.296,295.622,94.439,294.566,94.439L294.566,94.439z"/>
		</g>
		<g>
			<path fill="#271F3E" d="M300.195,108.938c-0.791,0-1.434-0.644-1.434-1.435V96.352c0-0.79,0.643-1.434,1.434-1.434h11.153
				c0.791,0,1.434,0.644,1.434,1.434v11.152c0,0.791-0.643,1.435-1.434,1.435H300.195z"/>
		</g>
		<g>
			<path fill="#FFFFFF" d="M311.348,95.396c0.527,0,0.956,0.43,0.956,0.956v11.152c0,0.528-0.429,0.956-0.956,0.956h-11.153
				c-0.527,0-0.956-0.428-0.956-0.956V96.352c0-0.526,0.428-0.956,0.956-0.956H311.348 M311.348,94.439h-11.153
				c-1.056,0-1.912,0.856-1.912,1.912v11.152c0,1.057,0.856,1.912,1.912,1.912h11.153c1.056,0,1.912-0.855,1.912-1.912V96.352
				C313.26,95.296,312.404,94.439,311.348,94.439L311.348,94.439z"/>
		</g>
		<g>
			<path fill="#271F3E" d="M316.977,108.938c-0.791,0-1.434-0.644-1.434-1.435V96.352c0-0.79,0.643-1.434,1.434-1.434h11.153
				c0.791,0,1.434,0.644,1.434,1.434v11.152c0,0.791-0.643,1.435-1.434,1.435H316.977z"/>
		</g>
		<g>
			<path fill="#FFFFFF" d="M328.13,95.396c0.527,0,0.956,0.43,0.956,0.956v11.152c0,0.528-0.428,0.956-0.956,0.956h-11.153
				c-0.527,0-0.956-0.428-0.956-0.956V96.352c0-0.526,0.428-0.956,0.956-0.956H328.13 M328.13,94.439h-11.153
				c-1.056,0-1.912,0.856-1.912,1.912v11.152c0,1.057,0.856,1.912,1.912,1.912h11.153c1.056,0,1.912-0.855,1.912-1.912V96.352
				C330.042,95.296,329.186,94.439,328.13,94.439L328.13,94.439z"/>
		</g>
		<g>
			<path fill="#271F3E" d="M333.758,108.938c-0.791,0-1.434-0.644-1.434-1.435V96.352c0-0.79,0.643-1.434,1.434-1.434h11.153
				c0.792,0,1.435,0.644,1.435,1.434v11.152c0,0.791-0.643,1.435-1.435,1.435H333.758z"/>
		</g>
		<g>
			<path fill="#FFFFFF" d="M344.911,95.396c0.528,0,0.956,0.43,0.956,0.956v11.152c0,0.528-0.428,0.956-0.956,0.956h-11.153
				c-0.527,0-0.956-0.428-0.956-0.956V96.352c0-0.526,0.429-0.956,0.956-0.956H344.911 M344.911,94.439h-11.153
				c-1.055,0-1.912,0.856-1.912,1.912v11.152c0,1.057,0.857,1.912,1.912,1.912h11.153c1.056,0,1.912-0.855,1.912-1.912V96.352
				C346.823,95.296,345.966,94.439,344.911,94.439L344.911,94.439z"/>
		</g>
		<g>
			<path fill="#271F3E" d="M350.54,108.938c-0.789,0-1.434-0.644-1.434-1.435V96.352c0-0.79,0.645-1.434,1.434-1.434h11.152
				c0.791,0,1.434,0.644,1.434,1.434v11.152c0,0.791-0.643,1.435-1.434,1.435H350.54z"/>
		</g>
		<g>
			<path fill="#FFFFFF" d="M361.692,95.396c0.528,0,0.956,0.43,0.956,0.956v11.152c0,0.528-0.428,0.956-0.956,0.956H350.54
				c-0.526,0-0.955-0.428-0.955-0.956V96.352c0-0.526,0.429-0.956,0.955-0.956H361.692 M361.692,94.439H350.54
				c-1.057,0-1.911,0.856-1.911,1.912v11.152c0,1.057,0.854,1.912,1.911,1.912h11.152c1.057,0,1.911-0.855,1.911-1.912V96.352
				C363.603,95.296,362.749,94.439,361.692,94.439L361.692,94.439z"/>
		</g>
		<g>
			<path fill="#271F3E" d="M367.321,108.938c-0.79,0-1.434-0.644-1.434-1.435V96.352c0-0.79,0.644-1.434,1.434-1.434h11.153
				c0.79,0,1.434,0.644,1.434,1.434v11.152c0,0.791-0.644,1.435-1.434,1.435H367.321z"/>
		</g>
		<g>
			<path fill="#FFFFFF" d="M378.474,95.396c0.526,0,0.956,0.43,0.956,0.956v11.152c0,0.528-0.43,0.956-0.956,0.956h-11.153
				c-0.526,0-0.956-0.428-0.956-0.956V96.352c0-0.526,0.43-0.956,0.956-0.956H378.474 M378.474,94.439h-11.153
				c-1.055,0-1.912,0.856-1.912,1.912v11.152c0,1.057,0.857,1.912,1.912,1.912h11.153c1.055,0,1.912-0.855,1.912-1.912V96.352
				C380.386,95.296,379.529,94.439,378.474,94.439L378.474,94.439z"/>
		</g>
		<g>
			<path fill="#271F3E" d="M384.103,108.938c-0.791,0-1.434-0.644-1.434-1.435V96.352c0-0.79,0.643-1.434,1.434-1.434h11.152
				c0.791,0,1.434,0.644,1.434,1.434v11.152c0,0.791-0.643,1.435-1.434,1.435H384.103z"/>
		</g>
		<g>
			<path fill="#FFFFFF" d="M395.255,95.396c0.528,0,0.955,0.43,0.955,0.956v11.152c0,0.528-0.427,0.956-0.955,0.956h-11.152
				c-0.528,0-0.956-0.428-0.956-0.956V96.352c0-0.526,0.428-0.956,0.956-0.956H395.255 M395.255,94.439h-11.152
				c-1.057,0-1.911,0.856-1.911,1.912v11.152c0,1.057,0.854,1.912,1.911,1.912h11.152c1.057,0,1.911-0.855,1.911-1.912V96.352
				C397.167,95.296,396.312,94.439,395.255,94.439L395.255,94.439z"/>
		</g>
		<g>
			<path fill="#271F3E" d="M400.884,108.938c-0.79,0-1.435-0.644-1.435-1.435V96.352c0-0.79,0.645-1.434,1.435-1.434h11.153
				c0.79,0,1.434,0.644,1.434,1.434v11.152c0,0.791-0.644,1.435-1.434,1.435H400.884z"/>
		</g>
		<g>
			<path fill="#FFFFFF" d="M412.038,95.396c0.526,0,0.956,0.43,0.956,0.956v11.152c0,0.528-0.43,0.956-0.956,0.956h-11.153
				c-0.526,0-0.956-0.428-0.956-0.956V96.352c0-0.526,0.43-0.956,0.956-0.956H412.038 M412.038,94.439h-11.153
				c-1.055,0-1.912,0.856-1.912,1.912v11.152c0,1.057,0.857,1.912,1.912,1.912h11.153c1.055,0,1.912-0.855,1.912-1.912V96.352
				C413.95,95.296,413.092,94.439,412.038,94.439L412.038,94.439z"/>
		</g>
		<g>
			<path fill="#271F3E" d="M417.667,108.938c-0.792,0-1.434-0.644-1.434-1.435V96.352c0-0.79,0.642-1.434,1.434-1.434h11.151
				c0.792,0,1.435,0.644,1.435,1.434v11.152c0,0.791-0.643,1.435-1.435,1.435H417.667z"/>
		</g>
		<g>
			<path fill="#FFFFFF" d="M428.818,95.396c0.528,0,0.956,0.43,0.956,0.956v11.152c0,0.528-0.428,0.956-0.956,0.956h-11.151
				c-0.528,0-0.956-0.428-0.956-0.956V96.352c0-0.526,0.428-0.956,0.956-0.956H428.818 M428.818,94.439h-11.151
				c-1.057,0-1.912,0.856-1.912,1.912v11.152c0,1.057,0.855,1.912,1.912,1.912h11.151c1.057,0,1.912-0.855,1.912-1.912V96.352
				C430.73,95.296,429.875,94.439,428.818,94.439L428.818,94.439z"/>
		</g>
		<g>
			<path fill="#271F3E" d="M275.077,92.688c-0.791,0-1.434-0.643-1.434-1.434V80.102c0-0.791,0.643-1.434,1.434-1.434h11.153
				c0.791,0,1.434,0.643,1.434,1.434v11.152c0,0.791-0.643,1.434-1.434,1.434H275.077z"/>
		</g>
		<g>
			<path fill="#FFFFFF" d="M286.229,79.146c0.527,0,0.956,0.43,0.956,0.956v11.152c0,0.527-0.428,0.956-0.956,0.956h-11.153
				c-0.527,0-0.956-0.429-0.956-0.956V80.102c0-0.526,0.429-0.956,0.956-0.956H286.229 M286.229,78.189h-11.153
				c-1.056,0-1.912,0.856-1.912,1.912v11.152c0,1.056,0.856,1.912,1.912,1.912h11.153c1.056,0,1.912-0.856,1.912-1.912V80.102
				C288.141,79.046,287.285,78.189,286.229,78.189L286.229,78.189z"/>
		</g>
		<g>
			<path fill="#271F3E" d="M291.805,92.688c-0.791,0-1.434-0.643-1.434-1.434V80.102c0-0.791,0.644-1.434,1.434-1.434h11.152
				c0.791,0,1.434,0.643,1.434,1.434v11.152c0,0.791-0.643,1.434-1.434,1.434H291.805z"/>
		</g>
		<g>
			<path fill="#FFFFFF" d="M302.958,79.146c0.528,0,0.956,0.43,0.956,0.956v11.152c0,0.527-0.428,0.956-0.956,0.956h-11.152
				c-0.527,0-0.956-0.429-0.956-0.956V80.102c0-0.526,0.429-0.956,0.956-0.956H302.958 M302.958,78.189h-11.152
				c-1.056,0-1.912,0.856-1.912,1.912v11.152c0,1.056,0.856,1.912,1.912,1.912h11.152c1.056,0,1.912-0.856,1.912-1.912V80.102
				C304.87,79.046,304.014,78.189,302.958,78.189L302.958,78.189z"/>
		</g>
		<g>
			<path fill="#271F3E" d="M308.534,92.688c-0.791,0-1.434-0.643-1.434-1.434V80.102c0-0.791,0.643-1.434,1.434-1.434h11.152
				c0.791,0,1.434,0.643,1.434,1.434v11.152c0,0.791-0.643,1.434-1.434,1.434H308.534z"/>
		</g>
		<g>
			<path fill="#FFFFFF" d="M319.686,79.146c0.527,0,0.956,0.43,0.956,0.956v11.152c0,0.527-0.429,0.956-0.956,0.956h-11.152
				c-0.527,0-0.956-0.429-0.956-0.956V80.102c0-0.526,0.429-0.956,0.956-0.956H319.686 M319.686,78.189h-11.152
				c-1.056,0-1.912,0.856-1.912,1.912v11.152c0,1.056,0.856,1.912,1.912,1.912h11.152c1.056,0,1.912-0.856,1.912-1.912V80.102
				C321.598,79.046,320.742,78.189,319.686,78.189L319.686,78.189z"/>
		</g>
		<g>
			<path fill="#271F3E" d="M325.262,92.688c-0.791,0-1.434-0.643-1.434-1.434V80.102c0-0.791,0.643-1.434,1.434-1.434h11.152
				c0.791,0,1.434,0.643,1.434,1.434v11.152c0,0.791-0.643,1.434-1.434,1.434H325.262z"/>
		</g>
		<g>
			<path fill="#FFFFFF" d="M336.415,79.146c0.527,0,0.956,0.43,0.956,0.956v11.152c0,0.527-0.429,0.956-0.956,0.956h-11.152
				c-0.527,0-0.956-0.429-0.956-0.956V80.102c0-0.526,0.429-0.956,0.956-0.956H336.415 M336.415,78.189h-11.152
				c-1.056,0-1.912,0.856-1.912,1.912v11.152c0,1.056,0.856,1.912,1.912,1.912h11.152c1.056,0,1.912-0.856,1.912-1.912V80.102
				C338.327,79.046,337.47,78.189,336.415,78.189L336.415,78.189z"/>
		</g>
		<g>
			<path fill="#271F3E" d="M341.991,92.688c-0.791,0-1.434-0.643-1.434-1.434V80.102c0-0.791,0.643-1.434,1.434-1.434h11.151
				c0.792,0,1.435,0.643,1.435,1.434v11.152c0,0.791-0.643,1.434-1.435,1.434H341.991z"/>
		</g>
		<g>
			<path fill="#FFFFFF" d="M353.142,79.146c0.529,0,0.956,0.43,0.956,0.956v11.152c0,0.527-0.427,0.956-0.956,0.956h-11.151
				c-0.528,0-0.956-0.429-0.956-0.956V80.102c0-0.526,0.428-0.956,0.956-0.956H353.142 M353.142,78.189h-11.151
				c-1.056,0-1.912,0.856-1.912,1.912v11.152c0,1.056,0.856,1.912,1.912,1.912h11.151c1.058,0,1.912-0.856,1.912-1.912V80.102
				C355.054,79.046,354.2,78.189,353.142,78.189L353.142,78.189z"/>
		</g>
		<g>
			<path fill="#271F3E" d="M358.719,92.688c-0.792,0-1.434-0.643-1.434-1.434V80.102c0-0.791,0.642-1.434,1.434-1.434h11.151
				c0.792,0,1.435,0.643,1.435,1.434v11.152c0,0.791-0.643,1.434-1.435,1.434H358.719z"/>
		</g>
		<g>
			<path fill="#FFFFFF" d="M369.871,79.146c0.529,0,0.956,0.43,0.956,0.956v11.152c0,0.527-0.427,0.956-0.956,0.956h-11.151
				c-0.528,0-0.956-0.429-0.956-0.956V80.102c0-0.526,0.428-0.956,0.956-0.956H369.871 M369.871,78.189h-11.151
				c-1.057,0-1.912,0.856-1.912,1.912v11.152c0,1.056,0.855,1.912,1.912,1.912h11.151c1.058,0,1.912-0.856,1.912-1.912V80.102
				C371.783,79.046,370.928,78.189,369.871,78.189L369.871,78.189z"/>
		</g>
		<g>
			<path fill="#271F3E" d="M375.448,92.688c-0.792,0-1.434-0.643-1.434-1.434V80.102c0-0.791,0.642-1.434,1.434-1.434h11.151
				c0.792,0,1.435,0.643,1.435,1.434v11.152c0,0.791-0.643,1.434-1.435,1.434H375.448z"/>
		</g>
		<g>
			<path fill="#FFFFFF" d="M386.599,79.146c0.528,0,0.956,0.43,0.956,0.956v11.152c0,0.527-0.428,0.956-0.956,0.956h-11.151
				c-0.528,0-0.956-0.429-0.956-0.956V80.102c0-0.526,0.428-0.956,0.956-0.956H386.599 M386.599,78.189h-11.151
				c-1.057,0-1.912,0.856-1.912,1.912v11.152c0,1.056,0.855,1.912,1.912,1.912h11.151c1.057,0,1.912-0.856,1.912-1.912V80.102
				C388.511,79.046,387.656,78.189,386.599,78.189L386.599,78.189z"/>
		</g>
		<g>
			<path fill="#271F3E" d="M392.176,92.688c-0.792,0-1.434-0.643-1.434-1.434V80.102c0-0.791,0.642-1.434,1.434-1.434h11.151
				c0.792,0,1.435,0.643,1.435,1.434v11.152c0,0.791-0.643,1.434-1.435,1.434H392.176z"/>
		</g>
		<g>
			<path fill="#FFFFFF" d="M403.328,79.146c0.528,0,0.956,0.43,0.956,0.956v11.152c0,0.527-0.428,0.956-0.956,0.956h-11.151
				c-0.528,0-0.956-0.429-0.956-0.956V80.102c0-0.526,0.428-0.956,0.956-0.956H403.328 M403.328,78.189h-11.151
				c-1.057,0-1.912,0.856-1.912,1.912v11.152c0,1.056,0.855,1.912,1.912,1.912h11.151c1.057,0,1.912-0.856,1.912-1.912V80.102
				C405.24,79.046,404.384,78.189,403.328,78.189L403.328,78.189z"/>
		</g>
		<g>
			<path fill="#271F3E" d="M408.905,92.688c-0.792,0-1.434-0.643-1.434-1.434V80.102c0-0.791,0.642-1.434,1.434-1.434h11.151
				c0.792,0,1.434,0.643,1.434,1.434v11.152c0,0.791-0.642,1.434-1.434,1.434H408.905z"/>
		</g>
		<g>
			<path fill="#FFFFFF" d="M420.056,79.146c0.528,0,0.956,0.43,0.956,0.956v11.152c0,0.527-0.428,0.956-0.956,0.956h-11.151
				c-0.528,0-0.956-0.429-0.956-0.956V80.102c0-0.526,0.428-0.956,0.956-0.956H420.056 M420.056,78.189h-11.151
				c-1.057,0-1.912,0.856-1.912,1.912v11.152c0,1.056,0.855,1.912,1.912,1.912h11.151c1.057,0,1.912-0.856,1.912-1.912V80.102
				C421.968,79.046,421.113,78.189,420.056,78.189L420.056,78.189z"/>
		</g>
		<g>
			<path fill="#271F3E" d="M425.633,92.688c-0.792,0-1.435-0.643-1.435-1.434V80.102c0-0.791,0.643-1.434,1.435-1.434h11.151
				c0.792,0,1.434,0.643,1.434,1.434v11.152c0,0.791-0.642,1.434-1.434,1.434H425.633z"/>
		</g>
		<g>
			<path fill="#FFFFFF" d="M436.785,79.146c0.528,0,0.956,0.43,0.956,0.956v11.152c0,0.527-0.428,0.956-0.956,0.956h-11.151
				c-0.528,0-0.956-0.429-0.956-0.956V80.102c0-0.526,0.428-0.956,0.956-0.956H436.785 M436.785,78.189h-11.151
				c-1.057,0-1.912,0.856-1.912,1.912v11.152c0,1.056,0.855,1.912,1.912,1.912h11.151c1.057,0,1.912-0.856,1.912-1.912V80.102
				C438.697,79.046,437.841,78.189,436.785,78.189L436.785,78.189z"/>
		</g>
		<g>
			<path fill="#271F3E" d="M228.863,76.119c-0.791,0-1.434-0.644-1.434-1.434V63.532c0-0.79,0.643-1.434,1.434-1.434h19.755
				c0.791,0,1.434,0.644,1.434,1.434v11.153c0,0.79-0.643,1.434-1.434,1.434H228.863z"/>
		</g>
		<g>
			<path fill="#FFFFFF" d="M248.618,62.576c0.528,0,0.956,0.429,0.956,0.956v11.153c0,0.526-0.428,0.955-0.956,0.955h-19.755
				c-0.528,0-0.956-0.429-0.956-0.955V63.532c0-0.527,0.428-0.956,0.956-0.956H248.618 M248.618,61.621h-19.755
				c-1.056,0-1.912,0.855-1.912,1.911v11.153c0,1.056,0.856,1.911,1.912,1.911h19.755c1.056,0,1.912-0.855,1.912-1.911V63.532
				C250.53,62.477,249.674,61.621,248.618,61.621L248.618,61.621z"/>
		</g>
		<g>
			<path fill="#271F3E" d="M228.863,92.369c-0.791,0-1.434-0.643-1.434-1.434V80.421c0-0.791,0.643-1.435,1.434-1.435h23.579
				c0.791,0,1.434,0.644,1.434,1.435v10.515c0,0.791-0.643,1.434-1.434,1.434H228.863z"/>
		</g>
		<g>
			<path fill="#FFFFFF" d="M252.442,79.465c0.527,0,0.956,0.43,0.956,0.956v10.515c0,0.526-0.429,0.956-0.956,0.956h-23.579
				c-0.528,0-0.956-0.43-0.956-0.956V80.421c0-0.526,0.428-0.956,0.956-0.956H252.442 M252.442,78.509h-23.579
				c-1.056,0-1.912,0.856-1.912,1.912v10.515c0,1.056,0.856,1.912,1.912,1.912h23.579c1.056,0,1.912-0.856,1.912-1.912V80.421
				C254.354,79.365,253.498,78.509,252.442,78.509L252.442,78.509z"/>
		</g>
		<g>
			<path fill="#271F3E" d="M442.031,92.369c-0.791,0-1.434-0.643-1.434-1.434V79.783c0-0.791,0.643-1.434,1.434-1.434h24.218
				c0.789,0,1.434,0.643,1.434,1.434v11.152c0,0.791-0.645,1.434-1.434,1.434H442.031z"/>
		</g>
		<g>
			<path fill="#FFFFFF" d="M466.249,78.827c0.526,0,0.955,0.429,0.955,0.956v11.152c0,0.526-0.429,0.956-0.955,0.956h-24.218
				c-0.528,0-0.955-0.43-0.955-0.956V79.783c0-0.527,0.427-0.956,0.955-0.956H466.249 M466.249,77.871h-24.218
				c-1.057,0-1.911,0.856-1.911,1.912v11.152c0,1.056,0.854,1.912,1.911,1.912h24.218c1.055,0,1.911-0.856,1.911-1.912V79.783
				C468.16,78.728,467.303,77.871,466.249,77.871L466.249,77.871z"/>
		</g>
		<g>
			<path fill="#271F3E" d="M229.182,108.62c-0.791,0-1.434-0.644-1.434-1.435V96.353c0-0.79,0.643-1.434,1.434-1.434h31.864
				c0.791,0,1.434,0.644,1.434,1.434v10.833c0,0.791-0.643,1.435-1.434,1.435H229.182z"/>
		</g>
		<g>
			<path fill="#FFFFFF" d="M261.045,95.396c0.527,0,0.956,0.429,0.956,0.956v10.833c0,0.528-0.428,0.956-0.956,0.956h-31.864
				c-0.527,0-0.956-0.428-0.956-0.956V96.353c0-0.527,0.428-0.956,0.956-0.956H261.045 M261.045,94.441h-31.864
				c-1.056,0-1.912,0.855-1.912,1.911v10.833c0,1.057,0.856,1.912,1.912,1.912h31.864c1.056,0,1.912-0.855,1.912-1.912V96.353
				C262.957,95.297,262.101,94.441,261.045,94.441L261.045,94.441z"/>
		</g>
		<g>
			<path fill="#271F3E" d="M434.065,108.938c-0.79,0-1.435-0.644-1.435-1.435V96.353c0-0.79,0.645-1.434,1.435-1.434h31.864
				c0.789,0,1.434,0.644,1.434,1.434v11.151c0,0.791-0.645,1.435-1.434,1.435H434.065z"/>
		</g>
		<g>
			<path fill="#FFFFFF" d="M465.929,95.396c0.526,0,0.955,0.429,0.955,0.956v11.151c0,0.528-0.429,0.956-0.955,0.956h-31.864
				c-0.527,0-0.956-0.428-0.956-0.956V96.353c0-0.527,0.429-0.956,0.956-0.956H465.929 M465.929,94.441h-31.864
				c-1.056,0-1.912,0.855-1.912,1.911v11.151c0,1.057,0.856,1.912,1.912,1.912h31.864c1.055,0,1.911-0.855,1.911-1.912V96.353
				C467.84,95.297,466.984,94.441,465.929,94.441L465.929,94.441z"/>
		</g>
		<g>
			<path fill="#271F3E" d="M279.526,127.42c-0.791,0-1.434-0.644-1.434-1.434v-13.383c0-0.791,0.644-1.435,1.434-1.435h14.976
				c0.791,0,1.434,0.644,1.434,1.435v13.383c0,0.79-0.643,1.434-1.434,1.434H279.526z"/>
		</g>
		<g>
			<path fill="#FFFFFF" d="M294.502,111.647c0.527,0,0.956,0.429,0.956,0.956v13.383c0,0.527-0.429,0.955-0.956,0.955h-14.976
				c-0.527,0-0.956-0.428-0.956-0.955v-13.383c0-0.527,0.429-0.956,0.956-0.956H294.502 M294.502,110.691h-14.976
				c-1.056,0-1.912,0.856-1.912,1.912v13.383c0,1.056,0.856,1.911,1.912,1.911h14.976c1.056,0,1.912-0.855,1.912-1.911v-13.383
				C296.414,111.548,295.558,110.691,294.502,110.691L294.502,110.691z"/>
		</g>
		<g>
			<path fill="#271F3E" d="M383.401,127.42c-0.789,0-1.434-0.644-1.434-1.434v-13.383c0-0.791,0.645-1.435,1.434-1.435h14.978
				c0.79,0,1.434,0.644,1.434,1.435v13.383c0,0.79-0.644,1.434-1.434,1.434H383.401z"/>
		</g>
		<g>
			<path fill="#FFFFFF" d="M398.378,111.647c0.526,0,0.956,0.429,0.956,0.956v13.383c0,0.527-0.43,0.955-0.956,0.955h-14.978
				c-0.526,0-0.955-0.428-0.955-0.955v-13.383c0-0.527,0.429-0.956,0.955-0.956H398.378 M398.378,110.691h-14.978
				c-1.055,0-1.911,0.856-1.911,1.912v13.383c0,1.056,0.856,1.911,1.911,1.911h14.978c1.055,0,1.912-0.855,1.912-1.911v-13.383
				C400.291,111.548,399.433,110.691,398.378,110.691L398.378,110.691z"/>
		</g>
		<g>
			<path fill="#271F3E" d="M405.07,127.42c-0.792,0-1.434-0.644-1.434-1.434v-13.383c0-0.791,0.642-1.435,1.434-1.435h10.832
				c0.792,0,1.435,0.644,1.435,1.435v13.383c0,0.79-0.643,1.434-1.435,1.434H405.07z"/>
		</g>
		<g>
			<path fill="#FFFFFF" d="M415.902,111.647c0.528,0,0.956,0.429,0.956,0.956v13.383c0,0.527-0.428,0.955-0.956,0.955H405.07
				c-0.528,0-0.956-0.428-0.956-0.955v-13.383c0-0.527,0.428-0.956,0.956-0.956H415.902 M415.902,110.691H405.07
				c-1.057,0-1.912,0.856-1.912,1.912v13.383c0,1.056,0.855,1.911,1.912,1.911h10.832c1.057,0,1.912-0.855,1.912-1.911v-13.383
				C417.814,111.548,416.958,110.691,415.902,110.691L415.902,110.691z"/>
		</g>
		<g>
			<path fill="#271F3E" d="M421.638,127.42c-0.79,0-1.435-0.644-1.435-1.434v-5.1c0-0.79,0.645-1.434,1.435-1.434h11.153
				c0.789,0,1.434,0.644,1.434,1.434v5.1c0,0.79-0.645,1.434-1.434,1.434H421.638z"/>
		</g>
		<g>
			<path fill="#FFFFFF" d="M432.792,119.932c0.526,0,0.956,0.428,0.956,0.955v5.1c0,0.527-0.43,0.955-0.956,0.955h-11.153
				c-0.527,0-0.956-0.428-0.956-0.955v-5.1c0-0.527,0.429-0.955,0.956-0.955H432.792 M432.792,118.976h-11.153
				c-1.056,0-1.912,0.855-1.912,1.911v5.1c0,1.056,0.856,1.911,1.912,1.911h11.153c1.055,0,1.911-0.855,1.911-1.911v-5.1
				C434.703,119.831,433.846,118.976,432.792,118.976L432.792,118.976z"/>
		</g>
		<g>
			<path fill="#271F3E" d="M438.293,127.42c-0.839,0-1.52-0.644-1.52-1.434v-13.383c0-0.791,0.681-1.435,1.52-1.435h10.66
				c0.839,0,1.522,0.644,1.522,1.435v13.383c0,0.79-0.684,1.434-1.522,1.434H438.293z"/>
		</g>
		<g>
			<path fill="#FFFFFF" d="M448.954,111.647c0.575,0,1.044,0.429,1.044,0.956v13.383c0,0.527-0.469,0.955-1.044,0.955h-10.66
				c-0.575,0-1.042-0.428-1.042-0.955v-13.383c0-0.527,0.467-0.956,1.042-0.956H448.954 M448.954,110.691h-10.66
				c-1.104,0-1.998,0.856-1.998,1.912v13.383c0,1.056,0.895,1.911,1.998,1.911h10.66c1.104,0,2-0.855,2-1.911v-13.383
				C450.954,111.548,450.057,110.691,448.954,110.691L448.954,110.691z"/>
		</g>
		<g>
			<path fill="#271F3E" d="M455.184,127.42c-0.838,0-1.521-0.644-1.521-1.434v-5.1c0-0.79,0.684-1.434,1.521-1.434h10.338
				c0.838,0,1.521,0.644,1.521,1.434v5.1c0,0.79-0.684,1.434-1.521,1.434H455.184z"/>
		</g>
		<g>
			<path fill="#FFFFFF" d="M465.522,119.932c0.575,0,1.044,0.428,1.044,0.955v5.1c0,0.527-0.469,0.955-1.044,0.955h-10.338
				c-0.575,0-1.044-0.428-1.044-0.955v-5.1c0-0.527,0.469-0.955,1.044-0.955H465.522 M465.522,118.976h-10.338
				c-1.104,0-1.999,0.855-1.999,1.911v5.1c0,1.056,0.896,1.911,1.999,1.911h10.338c1.104,0,1.999-0.855,1.999-1.911v-5.1
				C467.521,119.831,466.625,118.976,465.522,118.976L465.522,118.976z"/>
		</g>
		<g>
			<path fill="#271F3E" d="M300.237,127.42c-0.791,0-1.434-0.644-1.434-1.434v-13.383c0-0.791,0.643-1.435,1.434-1.435h77.748
				c0.79,0,1.435,0.644,1.435,1.435v13.383c0,0.79-0.645,1.434-1.435,1.434H300.237z"/>
		</g>
		<g>
			<path fill="#FFFFFF" d="M377.985,111.647c0.526,0,0.956,0.429,0.956,0.956v13.383c0,0.527-0.43,0.955-0.956,0.955h-77.748
				c-0.527,0-0.956-0.428-0.956-0.955v-13.383c0-0.527,0.428-0.956,0.956-0.956H377.985 M377.985,110.691h-77.748
				c-1.056,0-1.912,0.856-1.912,1.912v13.383c0,1.056,0.856,1.911,1.912,1.911h77.748c1.055,0,1.912-0.855,1.912-1.911v-13.383
				C379.897,111.548,379.04,110.691,377.985,110.691L377.985,110.691z"/>
		</g>
		<g>
			<rect x="196.043" y="36.129" fill="#CDD0E0" width="19.118" height="91.768"/>
		</g>
		<g>
			<rect x="480.904" y="36.129" fill="#CDD0E0" width="19.118" height="91.768"/>
		</g>
		<path opacity="0.2" fill="#CDD0E0" d="M395.917,204.37c0,3.695-2.995,6.69-6.691,6.69h-80.296c-3.696,0-6.691-2.995-6.691-6.69
			v-53.531c0-3.696,2.996-6.691,6.691-6.691h80.296c3.696,0,6.691,2.995,6.691,6.691V204.37z"/>
		<path fill="#CDD0E0" d="M389.225,211.539h-80.296c-3.953,0-7.169-3.216-7.169-7.169v-53.531c0-3.954,3.216-7.169,7.169-7.169
			h80.296c3.954,0,7.169,3.215,7.169,7.169v53.531C396.394,208.323,393.179,211.539,389.225,211.539z M308.929,144.625
			c-3.426,0-6.213,2.788-6.213,6.214v53.531c0,3.426,2.788,6.213,6.213,6.213h80.296c3.426,0,6.213-2.787,6.213-6.213v-53.531
			c0-3.426-2.787-6.214-6.213-6.214H308.929z"/>
		<g>
			<path fill="#271F3E" d="M225.676,18.902c0,1.255,0.856,2.271,1.912,2.271h238.341c1.055,0,1.911-1.016,1.911-2.271v-6.054
				H225.676V18.902z"/>
		</g>
		<path fill="#FFFFFF" d="M549.73,10.001c0,1.057-0.855,1.911-1.912,1.911H146.336c-1.056,0-1.912-0.854-1.912-1.911
			c0,0,5.735-7.646,21.986-8.284c0,0,348.27-0.637,363.246,0C544.632,2.354,549.73,10.001,549.73,10.001z"/>
		<path fill="#CDD0E0" d="M547.818,13.347H146.336c-1.845,0-3.346-1.501-3.346-3.346V9.522l0.287-0.383
			c0.25-0.334,6.337-8.198,23.076-8.856C167.956,0.28,322.427,0,428.826,0c62.51,0,96.453,0.096,100.892,0.283
			c15.526,0.661,20.981,8.585,21.205,8.922l0.241,0.361v0.435C551.164,11.846,549.663,13.347,547.818,13.347z M146.024,10.363
			c0.084,0.071,0.193,0.115,0.312,0.115h401.482c0.137,0,0.258-0.056,0.344-0.146c-1.38-1.579-6.729-6.68-18.565-7.183
			c-4.397-0.188-38.302-0.282-100.771-0.282c-106.396,0-260.865,0.28-262.413,0.283C153.611,3.654,147.629,8.728,146.024,10.363z"/>
	</g>
	<g>
		<linearGradient id="SVGID_5_" gradientUnits="userSpaceOnUse" x1="2.6362" y1="193.8193" x2="150.3544" y2="46.1011">
			<stop  offset="0" style="stop-color:#F16B90"/>
			<stop  offset="1" style="stop-color:#F89E71"/>
		</linearGradient>
		<path fill="url(#SVGID_5_)" d="M139.491,202.61c0,2.762-2.239,5-5,5H18.498c-2.761,0-5-2.238-5-5V37.309c0-2.761,2.239-5,5-5
			h115.993c2.761,0,5,2.239,5,5V202.61z"/>
		<g>
			<path fill="#CDD0E0" d="M134.491,209.11H18.498c-3.584,0-6.5-2.916-6.5-6.5V37.309c0-3.584,2.916-6.5,6.5-6.5h115.993
				c3.584,0,6.5,2.916,6.5,6.5V202.61C140.991,206.194,138.075,209.11,134.491,209.11z M18.498,33.809c-1.93,0-3.5,1.57-3.5,3.5
				V202.61c0,1.93,1.57,3.5,3.5,3.5h115.993c1.93,0,3.5-1.57,3.5-3.5V37.309c0-1.93-1.57-3.5-3.5-3.5H18.498z"/>
		</g>
		<path fill="#CDD0E0" d="M25.498,64.058c0,1.242-1.007,2.25-2.249,2.25H2.25C1.007,66.308,0,65.3,0,64.058l0,0
			c0-1.242,1.007-2.25,2.25-2.25h20.999C24.491,61.808,25.498,62.815,25.498,64.058L25.498,64.058z"/>
		<path fill="#CDD0E0" d="M25.498,74.058c0,1.242-1.007,2.25-2.249,2.25H2.25C1.007,76.308,0,75.3,0,74.058l0,0
			c0-1.242,1.007-2.25,2.25-2.25h20.999C24.491,71.808,25.498,72.815,25.498,74.058L25.498,74.058z"/>
		<path fill="#CDD0E0" d="M25.498,84.058c0,1.242-1.007,2.25-2.249,2.25H2.25C1.007,86.308,0,85.3,0,84.058l0,0
			c0-1.242,1.007-2.25,2.25-2.25h20.999C24.491,81.808,25.498,82.815,25.498,84.058L25.498,84.058z"/>
		<path fill="#CDD0E0" d="M25.498,94.058c0,1.242-1.007,2.25-2.249,2.25H2.25C1.007,96.308,0,95.3,0,94.058l0,0
			c0-1.242,1.007-2.25,2.25-2.25h20.999C24.491,91.808,25.498,92.815,25.498,94.058L25.498,94.058z"/>
		<path fill="#CDD0E0" d="M25.498,104.058c0,1.242-1.007,2.25-2.249,2.25H2.25c-1.243,0-2.25-1.008-2.25-2.25l0,0
			c0-1.242,1.007-2.25,2.25-2.25h20.999C24.491,101.808,25.498,102.815,25.498,104.058L25.498,104.058z"/>
		<path fill="#CDD0E0" d="M25.498,114.058c0,1.242-1.007,2.25-2.249,2.25H2.25c-1.243,0-2.25-1.008-2.25-2.25l0,0
			c0-1.242,1.007-2.25,2.25-2.25h20.999C24.491,111.808,25.498,112.815,25.498,114.058L25.498,114.058z"/>
		<path fill="#CDD0E0" d="M25.498,124.058c0,1.242-1.007,2.25-2.249,2.25H2.25c-1.243,0-2.25-1.008-2.25-2.25l0,0
			c0-1.242,1.007-2.25,2.25-2.25h20.999C24.491,121.808,25.498,122.815,25.498,124.058L25.498,124.058z"/>
		<path fill="#CDD0E0" d="M25.498,134.058c0,1.242-1.007,2.25-2.249,2.25H2.25c-1.243,0-2.25-1.008-2.25-2.25l0,0
			c0-1.242,1.007-2.25,2.25-2.25h20.999C24.491,131.808,25.498,132.815,25.498,134.058L25.498,134.058z"/>
		<path fill="#CDD0E0" d="M25.498,144.058c0,1.242-1.007,2.25-2.249,2.25H2.25c-1.243,0-2.25-1.008-2.25-2.25l0,0
			c0-1.242,1.007-2.25,2.25-2.25h20.999C24.491,141.808,25.498,142.815,25.498,144.058L25.498,144.058z"/>
		<path fill="#CDD0E0" d="M25.498,154.058c0,1.242-1.007,2.25-2.249,2.25H2.25c-1.243,0-2.25-1.008-2.25-2.25l0,0
			c0-1.242,1.007-2.25,2.25-2.25h20.999C24.491,151.808,25.498,152.815,25.498,154.058L25.498,154.058z"/>
		<path fill="#CDD0E0" d="M25.498,164.058c0,1.242-1.007,2.25-2.249,2.25H2.25c-1.243,0-2.25-1.008-2.25-2.25l0,0
			c0-1.242,1.007-2.25,2.25-2.25h20.999C24.491,161.808,25.498,162.815,25.498,164.058L25.498,164.058z"/>
		<path fill="#CDD0E0" d="M25.498,174.058c0,1.242-1.007,2.25-2.249,2.25H2.25c-1.243,0-2.25-1.008-2.25-2.25l0,0
			c0-1.242,1.007-2.25,2.25-2.25h20.999C24.491,171.808,25.498,172.815,25.498,174.058L25.498,174.058z"/>
		<g>
			<path fill="#FFFFFF" d="M111.251,97.724c0,2.762-2.239,5-5,5H45.584c-2.761,0-5-2.238-5-5V73.058c0-2.762,2.239-5,5-5h60.667
				c2.761,0,5,2.238,5,5V97.724z"/>
			<path fill="#CDD0E0" d="M106.251,104.224H45.584c-3.584,0-6.5-2.916-6.5-6.5V73.058c0-3.584,2.916-6.5,6.5-6.5h60.667
				c3.584,0,6.5,2.916,6.5,6.5v24.666C112.751,101.308,109.835,104.224,106.251,104.224z M45.584,69.558c-1.93,0-3.5,1.57-3.5,3.5
				v24.666c0,1.93,1.57,3.5,3.5,3.5h60.667c1.93,0,3.5-1.57,3.5-3.5V73.058c0-1.93-1.57-3.5-3.5-3.5H45.584z"/>
		</g>
	</g>
	<g>
		<path fill="#271F3E" d="M129.174,227.462l-37.406,37.382l-30.949-30.97c-1.879-1.879-1.85-4.951,0.063-6.863l30.48-30.459
			c1.914-1.91,4.986-1.938,6.865-0.058L129.174,227.462z"/>
		<path fill="#F16B90" d="M120.016,218.296l-21.789-21.802c-1.879-1.88-4.951-1.853-6.865,0.058l-30.48,30.459
			c-1.912,1.912-1.941,4.984-0.063,6.863l9.191,9.199L120.016,218.296z"/>
		<linearGradient id="SVGID_6_" gradientUnits="userSpaceOnUse" x1="98.4399" y1="288.9746" x2="204.1421" y2="288.9746">
			<stop  offset="0" style="stop-color:#FDFAF8"/>
			<stop  offset="1" style="stop-color:#F2F2F2"/>
		</linearGradient>
		<path fill="url(#SVGID_6_)" d="M139.122,235.52L98.44,276.173c8.756,6.195,20.154,6.996,29.596,2.404l61.264,61.307
			c3.393,3.395,8.898,3.396,12.295,0.002c3.395-3.395,3.398-8.898,0.004-12.293l-60.895-60.938
			C146.178,256.942,145.651,244.761,139.122,235.52z"/>
		<g>
			<path fill="#CDD0E0" d="M194.766,342.93L194.766,342.93c-2.725,0-5.287-1.063-7.211-2.99l-60.523-60.562
				c-3.893,1.723-8.174,2.629-12.447,2.629c-6.387,0-12.506-1.939-17.695-5.609l-1.453-1.028l43.199-43.171l1.027,1.453
				c6.578,9.311,7.402,21.643,2.205,31.732l60.107,60.146c3.975,3.975,3.973,10.442-0.004,14.416
				C200.045,341.87,197.487,342.93,194.766,342.93z M127.657,275.761l62.02,62.059c1.359,1.36,3.166,2.11,5.09,2.11l0,0
				c1.92,0,3.727-0.748,5.086-2.105c2.805-2.804,2.805-7.368,0.002-10.173l-61.701-61.742l0.559-0.992
				c4.928-8.738,4.682-19.554-0.514-28.039l-38.082,38.057c4.342,2.67,9.307,4.072,14.469,4.072c4.182,0,8.369-0.961,12.111-2.779
				L127.657,275.761z"/>
		</g>
		<path fill="#EBE7E6" d="M143.141,235.376c1.617,1.615,1.482,4.371-0.301,6.151l-38.078,38.052
			c-1.781,1.781-4.537,1.914-6.154,0.298c0,0-10.551-13.451-8.77-15.231l38.078-38.053
			C129.698,224.812,143.141,235.376,143.141,235.376z"/>
		<path fill="#F1F2F2" d="M143.141,235.376c1.617,1.615,1.482,4.371-0.301,6.151l-38.078,38.052
			c-1.781,1.781-4.537,1.914-6.154,0.298c0,0-10.551-13.451-8.77-15.231l38.078-38.053
			C129.698,224.812,143.141,235.376,143.141,235.376z"/>
		<path fill="#CDD0E0" d="M101.413,282.508c-1.479,0-2.852-0.558-3.865-1.569l-0.119-0.136c-11.371-14.497-9.465-16.403-8.65-17.218
			l38.078-38.053c0.293-0.293,0.822-0.641,1.676-0.641c3.428,0,12.758,7.121,15.537,9.305l0.133,0.118
			c1.086,1.085,1.641,2.558,1.563,4.147c-0.074,1.536-0.736,3.002-1.863,4.127l-38.078,38.052
			C104.637,281.827,103.03,282.508,101.413,282.508z M99.725,278.871c1.004,0.934,2.854,0.771,3.977-0.353l38.078-38.053
			c0.6-0.598,0.949-1.36,0.988-2.149c0.033-0.706-0.189-1.35-0.633-1.823c-5.104-4.003-11.5-8.287-13.412-8.586l-37.574,37.549
			C91.42,267.286,95.68,273.704,99.725,278.871z"/>
		<g>
			<path fill="#CDD0E0" d="M90.473,266.402l-32.008-32.028c-1.195-1.197-1.844-2.793-1.83-4.496
				c0.016-1.693,0.689-3.288,1.895-4.492l30.477-30.457c1.221-1.219,2.836-1.891,4.547-1.891c1.682,0,3.26,0.651,4.439,1.833
				l32.01,32.03L90.473,266.402z M93.553,196.038c-0.91,0-1.771,0.359-2.426,1.013l-30.477,30.458
				c-0.646,0.645-1.006,1.496-1.016,2.396c-0.008,0.892,0.33,1.726,0.953,2.348l29.887,29.907l35.285-35.261l-29.889-29.907
				C95.256,196.377,94.434,196.038,93.553,196.038z"/>
		</g>
		<g>
			<path fill="#CDD0E0" d="M192.942,335.339c-1.143,0-2.219-0.445-3.027-1.254c-1.666-1.669-1.664-4.385,0.002-6.054
				c0.811-0.81,1.885-1.253,3.027-1.253c1.145,0,2.219,0.445,3.027,1.255c0.807,0.808,1.254,1.882,1.252,3.026
				c0,1.145-0.445,2.219-1.254,3.026S194.086,335.339,192.942,335.339z M192.944,329.778c-0.342,0-0.664,0.133-0.906,0.375
				c-0.498,0.498-0.5,1.312,0,1.812c0.482,0.481,1.326,0.482,1.811-0.001c0.242-0.242,0.375-0.563,0.375-0.904
				s-0.133-0.664-0.375-0.906S193.286,329.778,192.944,329.778z"/>
		</g>
		<g>
			
				<rect x="117.453" y="233.044" transform="matrix(0.7071 0.7071 -0.7071 0.7071 215.5366 -9.2654)" fill="#CDD0E0" width="3" height="44.998"/>
		</g>
		<g>
			
				<rect x="112.502" y="228.095" transform="matrix(0.7071 0.7071 -0.7071 0.7071 210.5868 -7.214)" fill="#CDD0E0" width="3" height="44.998"/>
		</g>
	</g>
</g>
</svg>
