<?xml version="1.0" encoding="utf-8"?>
<!-- Generator: Adobe Illustrator 15.0.0, SVG Export Plug-In . SVG Version: 6.00 Build 0)  -->
<!DOCTYPE svg PUBLIC "-//W3C//DTD SVG 1.1//EN" "http://www.w3.org/Graphics/SVG/1.1/DTD/svg11.dtd">
<svg version="1.1" id="Layer_1" xmlns="http://www.w3.org/2000/svg" xmlns:xlink="http://www.w3.org/1999/xlink" x="0px" y="0px"
	 width="515.937px" height="183.392px" viewBox="0 0 515.937 183.392" enable-background="new 0 0 515.937 183.392"
	 xml:space="preserve">
<g id="Workspace_3">
	<g>
		<linearGradient id="SVGID_1_" gradientUnits="userSpaceOnUse" x1="-14.6753" y1="163.9424" x2="129.2017" y2="20.0654">
			<stop  offset="0" style="stop-color:#BC79B3"/>
			<stop  offset="1" style="stop-color:#7379BA"/>
		</linearGradient>
		<path fill="url(#SVGID_1_)" d="M102.988,3.574H4.509c-0.98,0-1.939,0.079-2.886,0.192v176.475
			c0.946,0.113,1.905,0.191,2.886,0.191h98.479c12.223,0,22.131-9.102,22.131-20.329v-136.2
			C125.12,12.676,115.211,3.574,102.988,3.574z"/>
		<rect x="2.623" y="66.527" opacity="0.2" fill="#5E4B8B" width="120.897" height="53.363"/>
		<rect x="74.773" y="4.541" fill="#271F3E" width="18.296" height="176.86"/>
		<g>
			<path fill="#CDD0E0" d="M94.528,181.892H73.183V1.983h21.346V181.892z M76.232,178.843h15.247V5.033H76.232V178.843z"/>
		</g>
		<g>
			<path fill="#CDD0E0" d="M102.889,181.892H4.41c-0.942,0-1.917-0.064-3.068-0.203L0,181.526V2.347l1.343-0.16
				C2.501,2.048,3.476,1.983,4.41,1.983h98.479c13.045,0,23.656,9.804,23.656,21.854v136.2
				C126.545,172.088,115.934,181.892,102.889,181.892z M3.049,178.792c0.479,0.034,0.926,0.051,1.361,0.051h98.479
				c11.363,0,20.607-8.437,20.607-18.805v-136.2c0-10.369-9.244-18.805-20.607-18.805H4.41c-0.433,0-0.88,0.017-1.361,0.051V178.792
				z"/>
		</g>
	</g>
	<g>
		<rect x="325.106" y="1.357" fill="#FFFFFF" width="13.934" height="169.187"/>
		<g>
			<path fill="#CDD0E0" d="M340.743,171.901h-16.647V0h16.647V171.901z M326.809,169.187h11.22V2.715h-11.22V169.187z"/>
		</g>
		<path fill="#271F3E" d="M339.385,52.596V1.357h-13.933v51.268C329.927,52.608,334.64,52.599,339.385,52.596z"/>
		<path fill="#CDD0E0" d="M324.095,53.988V0h16.647v53.953l-1.357,0.001c-4.743,0.003-9.453,0.012-13.928,0.029L324.095,53.988z
			 M326.809,2.715v48.548c3.636-0.012,7.41-0.02,11.22-0.023V2.715H326.809z"/>
		<rect x="328.106" y="170.544" fill="#271F3E" width="9.355" height="9.99"/>
		<path fill="#CDD0E0" d="M338.818,181.892H326.75v-12.705h12.068V181.892z M329.463,179.177h6.64v-7.275h-6.64V179.177z"/>
		<g>
			<rect x="318.44" y="5.146" fill="#CDD0E0" width="5.64" height="2.715"/>
		</g>
		<g>
			<rect x="318.44" y="47.33" fill="#CDD0E0" width="5.64" height="2.714"/>
		</g>
		<g>
			<rect x="317.526" y="5.146" fill="#CDD0E0" width="2.714" height="44.898"/>
		</g>
	</g>
	<g>
		<path fill="#271F3E" d="M497.032,88.888c0,2.578-2.091,4.667-4.667,4.667H390.646c-2.577,0-4.665-2.089-4.665-4.667V9.566
			c0-2.577,2.088-4.666,4.665-4.666h101.719c2.576,0,4.667,2.089,4.667,4.666V88.888z"/>
		<path fill="#FFFFFF" d="M497.032,9.566c0-2.577-2.091-4.666-4.667-4.666H390.646c-2.577,0-4.665,2.089-4.665,4.666v20.531h111.051
			V9.566z"/>
		<path fill="#FFFFFF" d="M385.981,88.888c0,2.578,2.088,4.667,4.665,4.667h101.719c2.576,0,4.667-2.089,4.667-4.667v-4.666H385.981
			V88.888z"/>
		<g>
			<path fill="#CDD0E0" d="M492.13,94.542H390.412c-3.246,0-5.888-2.642-5.888-5.888V9.333c0-3.247,2.642-5.888,5.888-5.888H492.13
				c3.247,0,5.889,2.641,5.889,5.888v79.322C498.019,91.9,495.377,94.542,492.13,94.542z M390.412,5.888
				c-1.898,0-3.443,1.545-3.443,3.444v79.322c0,1.899,1.545,3.443,3.443,3.443H492.13c1.899,0,3.444-1.544,3.444-3.443V9.333
				c0-1.899-1.545-3.444-3.444-3.444H390.412z"/>
		</g>
		<circle fill="#FFFFFF" cx="430.072" cy="61.125" r="34.995"/>
		<linearGradient id="SVGID_2_" gradientUnits="userSpaceOnUse" x1="402.0767" y1="61.125" x2="458.0688" y2="61.125">
			<stop  offset="0" style="stop-color:#5E4B8B"/>
			<stop  offset="1" style="stop-color:#271F3E"/>
		</linearGradient>
		<circle fill="url(#SVGID_2_)" cx="430.073" cy="61.125" r="27.996"/>
		<linearGradient id="SVGID_3_" gradientUnits="userSpaceOnUse" x1="404.8765" y1="61.125" x2="455.27" y2="61.125">
			<stop  offset="0" style="stop-color:#271F3E"/>
			<stop  offset="1" style="stop-color:#5E4B8B"/>
		</linearGradient>
		<circle fill="url(#SVGID_3_)" cx="430.073" cy="61.125" r="25.197"/>
		<linearGradient id="SVGID_4_" gradientUnits="userSpaceOnUse" x1="412.436" y1="61.1245" x2="447.7104" y2="61.1245">
			<stop  offset="0" style="stop-color:#5E4B8B"/>
			<stop  offset="1" style="stop-color:#271F3E"/>
		</linearGradient>
		<circle fill="url(#SVGID_4_)" cx="430.073" cy="61.125" r="17.637"/>
		<linearGradient id="SVGID_5_" gradientUnits="userSpaceOnUse" x1="421.3433" y1="69.855" x2="438.8031" y2="52.3951">
			<stop  offset="0" style="stop-color:#7379BA"/>
			<stop  offset="1" style="stop-color:#69CEF4"/>
		</linearGradient>
		<circle fill="url(#SVGID_5_)" cx="430.072" cy="61.125" r="12.346"/>
		<circle fill="#67CBF4" cx="430.073" cy="61.125" r="6.173"/>
		<g>
			<path fill="#CDD0E0" d="M430.073,97.341c-19.971,0-36.217-16.246-36.217-36.216c0-19.97,16.246-36.217,36.217-36.217
				c19.97,0,36.217,16.247,36.217,36.217C466.29,81.095,450.042,97.341,430.073,97.341z M430.073,27.352
				c-18.623,0-33.773,15.15-33.773,33.773c0,18.623,15.15,33.773,33.773,33.773c18.622,0,33.773-15.15,33.773-33.773
				C463.846,42.502,448.695,27.352,430.073,27.352z"/>
		</g>
		<rect x="470.667" y="12.132" fill="#271F3E" width="12.133" height="9.332"/>
		<path fill="#CDD0E0" d="M484.021,22.686h-14.575V10.91h14.575V22.686z M471.889,20.242h9.688v-6.888h-9.688V20.242z"/>
		<rect x="395.078" fill="#CDD0E0" width="23.33" height="4.666"/>
		<circle opacity="0.2" fill="#67CBF4" cx="434.384" cy="65.351" r="9.762"/>
		<circle opacity="0.2" fill="#FFFFFF" cx="434.383" cy="65.351" r="4.881"/>
	</g>
	<g>
		<path fill="#FFFFFF" d="M286.617,167.917c0,6.823-5.53,12.353-12.353,12.353H173.595c-6.822,0-12.353-5.529-12.353-12.353V15.989
			c0-6.822,5.531-12.354,12.353-12.354h100.669c6.822,0,12.353,5.532,12.353,12.354V167.917z"/>
		<g>
			<path fill="#CDD0E0" d="M274.264,181.892H173.596c-7.706,0-13.975-6.269-13.975-13.975V15.989c0-7.707,6.27-13.976,13.975-13.976
				h100.668c7.705,0,13.975,6.27,13.975,13.976v151.928C288.239,175.623,281.969,181.892,274.264,181.892z M173.596,5.258
				c-5.917,0-10.729,4.813-10.729,10.73v151.928c0,5.916,4.813,10.73,10.729,10.73h100.668c5.917,0,10.73-4.814,10.73-10.73V15.989
				c0-5.917-4.813-10.73-10.73-10.73H173.596z"/>
		</g>
		<rect x="173.087" y="25.704" fill="#271F3E" width="101.685" height="131.974"/>
		<circle fill="#CDD0E0" cx="223.93" cy="14.723" r="4.057"/>
		<g>
			<path fill="#CDD0E0" d="M223.93,174.544c-3.412,0-6.186-2.775-6.186-6.187s2.774-6.187,6.186-6.187
				c3.411,0,6.186,2.775,6.186,6.187S227.341,174.544,223.93,174.544z M223.93,165.416c-1.622,0-2.941,1.319-2.941,2.941
				s1.319,2.94,2.941,2.94c1.622,0,2.941-1.318,2.941-2.94S225.551,165.416,223.93,165.416z"/>
		</g>
		<g>
			<g>
				<linearGradient id="SVGID_6_" gradientUnits="userSpaceOnUse" x1="188.2715" y1="121.4824" x2="259.5891" y2="50.1649">
					<stop  offset="0" style="stop-color:#7379BA"/>
					<stop  offset="1" style="stop-color:#69CEF4"/>
				</linearGradient>
				<path fill="url(#SVGID_6_)" d="M261.428,117.571c0,2.762-2.239,5-5,5h-64.997c-2.761,0-5-2.238-5-5V54.075c0-2.762,2.239-5,5-5
					h64.997c2.761,0,5,2.238,5,5V117.571z"/>
				<path fill="#FFFFFF" d="M261.428,54.075c0-2.762-2.239-5-5-5h-64.997c-2.761,0-5,2.238-5,5v10.75h74.997V54.075z"/>
			</g>
			<g>
				<linearGradient id="SVGID_7_" gradientUnits="userSpaceOnUse" x1="199.915" y1="146.8379" x2="247.9438" y2="98.8091">
					<stop  offset="0" style="stop-color:#BC79B3"/>
					<stop  offset="1" style="stop-color:#7379BA"/>
				</linearGradient>
				<path fill="url(#SVGID_7_)" d="M249.183,144.204c0,1.859-1.508,3.367-3.367,3.367h-43.771c-1.86,0-3.368-1.508-3.368-3.367
					v-42.762c0-1.859,1.508-3.367,3.368-3.367h43.771c1.859,0,3.367,1.508,3.367,3.367V144.204z"/>
				<path fill="#FFFFFF" d="M249.183,101.442c0-1.859-1.508-3.367-3.367-3.367h-43.771c-1.86,0-3.368,1.508-3.368,3.367v7.239
					h50.507V101.442z"/>
			</g>
			<g>
				<path fill="#FFFFFF" d="M242.43,138.23c0-1.374-1.104-2.489-2.467-2.489h-32.066c-1.362,0-2.467,1.115-2.467,2.489v5.351h37
					V138.23z"/>
				<linearGradient id="SVGID_8_" gradientUnits="userSpaceOnUse" x1="211.1802" y1="162.7285" x2="236.6802" y2="137.2285">
					<stop  offset="0" style="stop-color:#F16B90"/>
					<stop  offset="1" style="stop-color:#F89E71"/>
				</linearGradient>
				<rect x="205.43" y="142.978" fill="url(#SVGID_8_)" width="37" height="14"/>
			</g>
		</g>
		<g>
			<path fill="#CDD0E0" d="M276.395,159.3H171.464V24.081h104.931V159.3z M174.709,156.055h98.439V27.327h-98.439V156.055z"/>
		</g>
	</g>
	<g>
		<g>
			<path fill="#271F3E" d="M514.292,176.251c-0.286-1.258-0.975-2.389-1.937-3.184l-31.204-25.814
				c-0.379-0.313-1.384-1.145-98.045-6.186c-2.495-0.158-4.499,1.58-4.594,3.885c-0.095,2.318,1.774,4.246,4.254,4.387
				c30.997,1.883,89.317,5.461,94.041,5.879l30.93,25.586c0.847,0.701,1.853,1.088,2.835,1.088c1.33,0,2.499-0.682,3.207-1.867
				C514.413,178.964,514.6,177.589,514.292,176.251z"/>
			<path fill="#CDD0E0" d="M510.573,183.392c-1.33,0-2.676-0.509-3.792-1.433l-30.565-25.284
				c-7.224-0.563-63.865-4.035-93.539-5.838c-3.301-0.188-5.79-2.799-5.662-5.945c0.131-3.171,2.837-5.532,6.188-5.32
				c97.135,5.065,98.075,5.841,98.904,6.525l31.206,25.814c1.216,1.006,2.084,2.429,2.443,4.007
				c0.393,1.707,0.142,3.485-0.688,4.875C514.082,182.444,512.443,183.392,510.573,183.392z M382.792,142.558
				c-1.527,0-2.723,1.057-2.78,2.457c-0.062,1.491,1.187,2.733,2.84,2.827c30.462,1.851,89.319,5.46,94.088,5.882l0.465,0.041
				l31.289,25.883c0.579,0.48,1.246,0.744,1.879,0.744c0.8,0,1.481-0.403,1.919-1.137c0.437-0.731,0.561-1.704,0.339-2.668
				c-0.214-0.939-0.722-1.777-1.43-2.363l-31.049-25.686c-2.267-0.533-21.32-2.009-97.323-5.973
				C382.938,142.56,382.865,142.558,382.792,142.558z"/>
		</g>
		<g>
			<path fill="#271F3E" d="M501.795,141.06c-0.092,0-0.183,0.002-0.271,0.008c-96.666,5.041-97.67,5.873-98.048,6.186
				l-31.204,25.814c-0.962,0.795-1.65,1.926-1.938,3.184c-0.306,1.338-0.119,2.713,0.514,3.773c0.709,1.186,1.877,1.867,3.206,1.867
				c0.983,0,1.99-0.387,2.835-1.086l30.931-25.588c4.724-0.418,63.045-3.996,94.037-5.879c2.482-0.141,4.354-2.068,4.257-4.387
				C506.023,142.733,504.167,141.06,501.795,141.06z"/>
			<path fill="#CDD0E0" d="M374.054,183.392c-1.868,0-3.506-0.946-4.493-2.598c-0.829-1.389-1.08-3.166-0.688-4.877
				c0.361-1.579,1.229-3.002,2.445-4.006l31.203-25.813c0.828-0.685,1.767-1.461,98.926-6.528c0.099-0.006,0.223-0.01,0.349-0.01
				c3.191,0,5.692,2.293,5.817,5.332c0.131,3.146-2.36,5.758-5.671,5.945c-29.672,1.803-86.315,5.277-93.529,5.838l-30.567,25.287
				C376.731,182.884,375.384,183.392,374.054,183.392z M404.277,148.538l-31.048,25.686c-0.709,0.586-1.218,1.425-1.433,2.362
				c-0.221,0.965-0.097,1.938,0.34,2.67c0.438,0.732,1.119,1.136,1.918,1.136c0.634,0,1.301-0.264,1.879-0.741l31.29-25.886
				l0.465-0.041c4.752-0.42,63.616-4.031,94.078-5.881c1.662-0.095,2.911-1.336,2.849-2.828c-0.058-1.422-1.244-2.455-2.819-2.455
				c-0.058,0-0.115,0.002-0.171,0.005C425.604,146.529,406.546,148.005,404.277,148.538z"/>
		</g>
		<path opacity="0.5" fill="#FDFAF8" d="M436.346,165.7c0,5.523-4.478,10-10,10h-35.498c-5.522,0-10-4.477-10-10v-20.498
			c0-5.523,4.478-10,10-10h35.498c5.522,0,10,4.477,10,10V165.7z"/>
		<path opacity="0.5" fill="#FDFAF8" d="M502.346,165.7c0,5.523-4.478,10-10,10h-35.498c-5.522,0-10-4.477-10-10v-20.498
			c0-5.523,4.478-10,10-10h35.498c5.522,0,10,4.477,10,10V165.7z"/>
		<g>
			<path fill="#271F3E" d="M456.848,178.7c-7.168,0-13-5.832-13-13v-20.498c0-0.412,0.021-0.83,0.064-1.25h-4.631
				c0.043,0.42,0.064,0.838,0.064,1.25V165.7c0,7.168-5.832,13-13,13h-35.498c-7.168,0-13-5.832-13-13v-20.498
				c0-0.596,0.045-1.199,0.134-1.809c-2.318-1.016-3.883-3.318-3.883-5.941v-0.5c0-3.584,2.916-6.5,6.5-6.5h121.993
				c3.584,0,6.5,2.916,6.5,6.5v0.5c0,2.621-1.563,4.924-3.88,5.939c0.089,0.609,0.134,1.215,0.134,1.811V165.7
				c0,7.168-5.832,13-13,13H456.848z M449.964,143.952c-0.077,0.414-0.116,0.832-0.116,1.25V165.7c0,3.859,3.141,7,7,7h35.498
				c3.859,0,7-3.141,7-7v-20.498c0-0.418-0.039-0.836-0.116-1.25H449.964z M383.964,143.952c-0.077,0.414-0.116,0.832-0.116,1.25
				V165.7c0,3.859,3.141,7,7,7h35.498c3.859,0,7-3.141,7-7v-20.498c0-0.418-0.039-0.836-0.116-1.25H383.964z"/>
			<path fill="#CDD0E0" d="M502.592,131.952c2.762,0,5,2.239,5,5v0.5c0,2.458-1.777,4.491-4.115,4.91
				c0.232,0.91,0.369,1.858,0.369,2.84V165.7c0,6.342-5.159,11.5-11.5,11.5h-35.498c-6.341,0-11.5-5.158-11.5-11.5v-20.498
				c0-0.949,0.129-1.867,0.347-2.75H437.5c0.218,0.883,0.347,1.801,0.347,2.75V165.7c0,6.342-5.159,11.5-11.5,11.5h-35.498
				c-6.341,0-11.5-5.158-11.5-11.5v-20.498c0-0.981,0.137-1.93,0.369-2.84c-2.339-0.418-4.118-2.451-4.118-4.91v-0.5
				c0-2.761,2.238-5,5-5H502.592 M456.848,174.2h35.498c4.687,0,8.5-3.813,8.5-8.5v-20.498c0-0.963-0.169-1.887-0.466-2.75h-51.566
				c-0.297,0.863-0.466,1.787-0.466,2.75V165.7C448.348,170.388,452.162,174.2,456.848,174.2 M390.848,174.2h35.498
				c4.687,0,8.5-3.813,8.5-8.5v-20.498c0-0.963-0.169-1.887-0.466-2.75h-51.566c-0.297,0.863-0.466,1.787-0.466,2.75V165.7
				C382.348,170.388,386.162,174.2,390.848,174.2 M502.592,128.952H380.599c-4.411,0-8,3.59-8,8v0.5
				c0,2.838,1.487,5.371,3.783,6.792c-0.022,0.321-0.034,0.641-0.034,0.958V165.7c0,7.995,6.505,14.5,14.5,14.5h35.498
				c7.995,0,14.5-6.505,14.5-14.5v-20.248h1.502V165.7c0,7.995,6.505,14.5,14.5,14.5h35.498c7.995,0,14.5-6.505,14.5-14.5v-20.498
				c0-0.318-0.012-0.639-0.034-0.96c2.295-1.421,3.78-3.954,3.78-6.79v-0.5C510.592,132.542,507.003,128.952,502.592,128.952
				L502.592,128.952z M451.348,145.452h46.498V165.7c0,3.033-2.467,5.5-5.5,5.5h-35.498c-3.033,0-5.5-2.467-5.5-5.5V145.452
				L451.348,145.452z M385.348,145.452h46.498V165.7c0,3.033-2.467,5.5-5.5,5.5h-35.498c-3.033,0-5.5-2.467-5.5-5.5V145.452
				L385.348,145.452z"/>
		</g>
	</g>
</g>
</svg>
